<?xml version="1.0" ?>
<!DOCTYPE svg
  PUBLIC '-//W3C//DTD SVG 1.0//EN'
  'http://www.w3.org/TR/2001/REC-SVG-20010904/DTD/svg10.dtd'>
<svg height="841.88976378" version="1.0" width="1190.5511811" xmlns="http://www.w3.org/2000/svg" xmlns:xlink="http://www.w3.org/1999/xlink">
     <title>
          ...
     </title>
     <desc>
          ...
     </desc>
     <clipPath id="clip">
          <rect height="841.88976378" width="1190.5511811" x="0" y="0"/>
     </clipPath>
     <g id="group" style="clip-path: url(#clip)" transform="scale(1,-1) translate(0,-841)">
          <g transform="">
               <polygon points="610.088233 514.491993, 621.197714 584.652326, 632.384581 545.775686" style="stroke: rgb(0%,50%,0%); stroke-linecap: round; stroke-width: 1; fill: rgb(0%,50%,0%);"/>
               <polygon points="636.264524 506.328625, 667.006224 570.366433, 662.606326 532.418551" style="stroke-width: 1; stroke-linecap: round; stroke: rgb(0%,0%,100%); fill: rgb(0%,0%,100%);"/>
               <path d="M 702.578880 465.073388 L 701.787086 466.951647 L 700.962417 468.815706 L 700.105128 470.664990 L 699.215484 472.498928 L 698.293759 474.316954 L 697.340237 476.118506 L 696.355214 477.903030 L 695.338993 479.669974 L 694.291888 481.418792 L 693.214222 483.148945 L 692.106327 484.859900 L 690.968546 486.551127 L 689.801229 488.222104 L 688.604737 489.872317 L 687.379440 491.501256 L 686.125715 493.108418 L 684.843949 494.693306 L 683.534539 496.255433 L 682.197887 497.794315 L 680.834408 499.309477 L 679.444520 500.800453 L 678.028655 502.266782 L 676.587247 503.708010 L 675.120744 505.123695 L 673.629596 506.513397 L 672.114265 507.876690 L 670.575217 509.213151 L 669.012929 510.522368 L 667.427881 511.803937 L 665.820565 513.057463 L 664.191474 514.282559 L 662.541113 515.478846 L 660.869991 516.645956 L 659.178623 517.783528 L 657.467532 518.891211 L 655.737245 519.968663 L 653.988297 521.015552 L 652.221228 522.031555 L 650.436582 523.016357 L 648.634912 523.969655 L 646.816772 524.891155 L 644.982724 525.780572 L 643.133334 526.637632 L 641.269172 527.462070 L 639.390816 528.253632 L 637.498843 529.012074 L 635.593838 529.737161 L 633.676389 530.428669 L 631.747087 531.086386 L 629.806529 531.710108 L 627.855313 532.299642 L 625.894041 532.854808 L 623.923319 533.375432 L 621.943755 533.861355 L 619.955960 534.312427 L 617.960548 534.728509 L 615.958133 535.109471 L 613.949336 535.455197 L 611.934774 535.765579 L 609.915071 536.040523 L 607.890849 536.279943 L 605.862734 536.483764 L 603.831351 536.651926 L 605.926639 564.988344 L 608.455504 564.779001 L 610.980301 564.525264 L 613.500250 564.227211 L 616.014574 563.884934 L 618.522498 563.498539 L 621.023246 563.068146 L 623.516047 562.593887 L 626.000132 562.075908 L 628.474734 561.514369 L 630.939090 560.909444 L 633.392437 560.261320 L 635.834021 559.570196 L 638.263085 558.836286 L 640.678882 558.059816 L 643.080666 557.241025 L 645.467694 556.380168 L 647.839231 555.477509 L 650.194544 554.533326 L 652.532907 553.547912 L 654.853597 552.521571 L 657.155899 551.454619 L 659.439102 550.347385 L 661.702500 549.200212 L 663.945397 548.013453 L 666.167098 546.787474 L 668.366919 545.522655 L 670.544181 544.219385 L 672.698211 542.878067 L 674.828345 541.499115 L 676.933926 540.082954 L 679.014302 538.630021 L 681.068833 537.140766 L 683.096885 535.615646 L 685.097830 534.055134 L 687.071052 532.459711 L 689.015942 530.829869 L 690.931899 529.166112 L 692.818332 527.468952 L 694.674659 525.738914 L 696.500306 523.976532 L 698.294711 522.182349 L 700.057319 520.356920 L 701.787587 518.500807 L 703.484980 516.614584 L 705.148975 514.698833 L 706.779058 512.754145 L 708.374725 510.781120 L 709.935485 508.780368 L 711.460855 506.752506 L 712.950365 504.698159 L 714.403555 502.617962 L 715.819977 500.512557 L 717.199193 498.382594 L 718.540777 496.228729 L 719.844317 494.051629 L 721.109408 491.851964 L 722.335661 489.630415 L 723.522698 487.387665 L 724.670151 485.124408 L 725.777667 482.841343 L 726.844905 480.539173 L 727.871533 478.218610 L 728.857237 475.880369 L 748.566004 483.985605 L 747.990735 483.007930 L 747.410000 482.036135 L 746.823839 481.070248 L 746.232290 480.110297 L 745.635393 479.156310 L 745.033188 478.208316 L 744.425713 477.266341 L 743.813008 476.330413 L 743.195114 475.400559 L 742.572069 474.476807 L 741.943915 473.559182 L 741.310692 472.647711 L 740.672439 471.742421 L 740.029197 470.843337 L 739.381008 469.950486 L 738.727910 469.063893 L 738.069947 468.183582 L 737.407157 467.309580 L 736.739583 466.441911 L 736.067266 465.580599 L 735.390247 464.725670 L 734.708567 463.877146 L 734.022269 463.035053 L 733.331393 462.199414 L 732.635982 461.370252 L 731.936078 460.547590 L 731.231722 459.731451 L 730.522957 458.921859 L 729.809825 458.118835 L 729.092368 457.322403 L 728.370630 456.532583 L 727.644652 455.749398 L 726.914477 454.972869 L 726.180149 454.203017 L 725.441709 453.439864 L 724.699202 452.683431 L 723.952670 451.933737 L 723.202156 451.190804 L 722.447703 450.454651 L 722.178230 450.194273 L 721.176964 450.515315 L 720.175237 450.828541 L 719.173097 451.133952 L 718.170592 451.431549 L 717.167769 451.721336 L 716.164676 452.003314 L 715.161360 452.277487 L 714.157870 452.543857 L 713.154252 452.802428 L 712.150554 453.053204 L 711.146824 453.296189 L 710.143109 453.531385 L 709.139456 453.758799 L 708.135913 453.978435 L 707.132527 454.190297 L 706.129345 454.394390 L 705.126414 454.590721 L 704.123783 454.779295 L 703.121497 454.960117 L 702.119604 455.133194 L 701.118151 455.298532 L 700.117185 455.456139 L 699.116753 455.606020 L 698.116902 455.748184 L 697.117679 455.882638 L 696.119130 456.009389 L 695.121303 456.128446 L 694.124244 456.239816 L 693.127999 456.343509 L 692.132616 456.439533 L 691.138140 456.527896 L 690.144619 456.608609 L 689.152098 456.681681 L 688.160625 456.747122 L 687.170245 456.804941 L 686.181004 456.855149 L 685.192949 456.897756 L 684.206125 456.932774 L 683.220580 456.960213 L 682.870113 456.968152 Z " style="stroke-linecap: round; stroke-width: 1; stroke: rgb(100%,0%,0%); fill: rgb(100%,0%,0%);"/>
               <polygon points="689.769813 427.372813, 760.640479 432.193762, 725.183966 411.800438" style="stroke-width: 1; stroke-linecap: round; stroke: rgb(100%,100%,0%); fill: rgb(100%,100%,0%);"/>
               <path d="M 784.973220 518.041976 L 784.825871 518.329314 L 784.678086 518.616428 L 784.529867 518.903318 L 784.381213 519.189982 L 784.232125 519.476422 L 784.082603 519.762635 L 783.932648 520.048621 L 783.782259 520.334379 L 783.631438 520.619909 L 783.480184 520.905211 L 783.328498 521.190283 L 783.176380 521.475125 L 783.023830 521.759735 L 782.870850 522.044115 L 782.717439 522.328262 L 782.563597 522.612177 L 782.409326 522.895858 L 782.254624 523.179304 L 782.099494 523.462517 L 781.943934 523.745493 L 781.787946 524.028234 L 781.631530 524.310738 L 781.474685 524.593005 L 781.317413 524.875034 L 781.159714 525.156824 L 781.001588 525.438375 L 780.843036 525.719686 L 780.684058 526.000756 L 780.524653 526.281585 L 780.364824 526.562172 L 780.204569 526.842517 L 780.043890 527.122618 L 779.882787 527.402476 L 779.721260 527.682089 L 779.559309 527.961458 L 779.396935 528.240580 L 779.234138 528.519456 L 779.070919 528.798085 L 778.907278 529.076467 L 778.743215 529.354600 L 778.578731 529.632484 L 778.413826 529.910119 L 778.248501 530.187503 L 778.082755 530.464637 L 777.916590 530.741519 L 777.750005 531.018149 L 777.583002 531.294527 L 777.415579 531.570651 L 777.247739 531.846521 L 777.079481 532.122136 L 776.910805 532.397496 L 776.741712 532.672600 L 776.572203 532.947448 L 776.402277 533.222038 L 776.231935 533.496371 L 776.061178 533.770445 L 775.890006 534.044260 L 836.094811 571.744053 L 836.323040 571.378966 L 836.550717 571.013534 L 836.777839 570.647757 L 837.004407 570.281636 L 837.230419 569.915173 L 837.455876 569.548367 L 837.680777 569.181221 L 837.905122 568.813733 L 838.128909 568.445907 L 838.352139 568.077742 L 838.574810 567.709238 L 838.796923 567.340398 L 839.018477 566.971222 L 839.239471 566.601711 L 839.459905 566.231865 L 839.679778 565.861685 L 839.899090 565.491173 L 840.117840 565.120328 L 840.336029 564.749153 L 840.553654 564.377648 L 840.770716 564.005813 L 840.987215 563.633649 L 841.203149 563.261159 L 841.418519 562.888341 L 841.633323 562.515197 L 841.847562 562.141728 L 842.061235 561.767935 L 842.274341 561.393819 L 842.486880 561.019380 L 842.698851 560.644620 L 842.910254 560.269539 L 843.121089 559.894138 L 843.331354 559.518418 L 843.541050 559.142379 L 843.750176 558.766024 L 843.958731 558.389352 L 844.166715 558.012364 L 844.374128 557.635062 L 844.580969 557.257445 L 844.787237 556.879516 L 844.992933 556.501275 L 845.198055 556.122722 L 845.402603 555.743859 L 845.606577 555.364687 L 845.809976 554.985205 L 846.012800 554.605416 L 846.215048 554.225321 L 846.416720 553.844919 L 846.617815 553.464212 L 846.818333 553.083200 L 847.018274 552.701886 L 847.217637 552.320268 L 847.416421 551.938349 L 847.614626 551.556130 L 847.812251 551.173610 L 848.009297 550.790791 L 848.205763 550.407675 Z " style="stroke-linecap: butt; stroke-width: 1; stroke: rgb(52%,80%,92%); fill: rgb(52%,80%,92%);"/>
               <path d="M 798.987533 358.379071 L 799.082105 358.687828 L 799.176210 358.996728 L 799.269846 359.305770 L 799.363013 359.614953 L 799.455712 359.924277 L 799.547942 360.233742 L 799.639704 360.543346 L 799.730995 360.853088 L 799.821818 361.162969 L 799.912171 361.472987 L 800.002054 361.783141 L 800.091466 362.093431 L 800.180409 362.403856 L 800.268881 362.714416 L 800.356882 363.025110 L 800.444413 363.335936 L 800.531472 363.646895 L 800.618060 363.957985 L 800.704177 364.269206 L 800.789822 364.580557 L 800.874995 364.892038 L 800.959696 365.203647 L 801.043924 365.515385 L 801.127680 365.827249 L 801.210964 366.139241 L 801.293774 366.451358 L 801.376112 366.763600 L 801.457976 367.075967 L 801.539367 367.388457 L 801.620285 367.701070 L 801.700728 368.013806 L 801.780698 368.326663 L 801.860193 368.639640 L 801.939214 368.952738 L 802.017761 369.265956 L 802.095832 369.579292 L 802.173429 369.892746 L 802.250551 370.206317 L 802.327198 370.520005 L 802.403369 370.833808 L 802.479064 371.147726 L 802.554284 371.461759 L 802.629028 371.775906 L 802.703296 372.090165 L 802.777087 372.404537 L 802.850402 372.719020 L 802.923241 373.033613 L 802.995602 373.348317 L 803.067487 373.663130 L 803.138895 373.978052 L 803.209825 374.293081 L 803.280278 374.608218 L 803.350253 374.923461 L 803.419750 375.238809 L 803.488770 375.554263 L 803.557311 375.869821 L 803.625374 376.185482 L 873.075302 361.265682 L 872.984551 360.844801 L 872.893163 360.424057 L 872.801137 360.003452 L 872.708474 359.582987 L 872.615173 359.162663 L 872.521236 358.742481 L 872.426663 358.322442 L 872.331453 357.902546 L 872.235606 357.482796 L 872.139124 357.063191 L 872.042006 356.643732 L 871.944253 356.224422 L 871.845864 355.805260 L 871.746841 355.386247 L 871.647182 354.967385 L 871.546889 354.548675 L 871.445962 354.130117 L 871.344400 353.711712 L 871.242205 353.293462 L 871.139375 352.875367 L 871.035913 352.457428 L 870.931817 352.039647 L 870.827089 351.622024 L 870.721727 351.204560 L 870.615733 350.787256 L 870.509107 350.370113 L 870.401849 349.953133 L 870.293960 349.536315 L 870.185438 349.119661 L 870.076286 348.703173 L 869.966502 348.286850 L 869.856088 347.870694 L 869.745044 347.454705 L 869.633369 347.038886 L 869.521064 346.623236 L 869.408129 346.207757 L 869.294565 345.792449 L 869.180372 345.377314 L 869.065550 344.962353 L 868.950099 344.547566 L 868.834020 344.132954 L 868.717313 343.718519 L 868.599978 343.304261 L 868.482015 342.890181 L 868.363425 342.476281 L 868.244208 342.062561 L 868.124364 341.649021 L 868.003894 341.235664 L 867.882797 340.822490 L 867.761075 340.409500 L 867.638726 339.996695 L 867.515753 339.584076 L 867.392154 339.171643 L 867.267931 338.759399 L 867.143083 338.347343 L 867.017610 337.935476 L 866.891514 337.523801 Z " style="stroke-width: 1; stroke-linecap: butt; stroke: rgb(52%,80%,92%); fill: rgb(52%,80%,92%);"/>
               <path d="M 783.503588 321.028630 L 783.654775 321.313967 L 783.805529 321.599532 L 783.955851 321.885326 L 784.105739 322.171347 L 784.255194 322.457595 L 784.404215 322.744069 L 784.552802 323.030769 L 784.700954 323.317693 L 784.848671 323.604842 L 784.995953 323.892214 L 785.142799 324.179809 L 785.289209 324.467626 L 785.435183 324.755665 L 785.580721 325.043924 L 785.725821 325.332404 L 785.870484 325.621103 L 786.014710 325.910021 L 786.158497 326.199158 L 786.301846 326.488511 L 786.444757 326.778082 L 786.587228 327.067869 L 786.729261 327.357872 L 786.870853 327.648089 L 787.012006 327.938521 L 787.152719 328.229166 L 787.292991 328.520024 L 787.432822 328.811094 L 787.572212 329.102376 L 787.711160 329.393869 L 787.849666 329.685572 L 787.987731 329.977485 L 788.125352 330.269606 L 788.262531 330.561936 L 788.399267 330.854473 L 788.535559 331.147217 L 788.671408 331.440167 L 788.806813 331.733322 L 788.941773 332.026683 L 789.076288 332.320248 L 789.210359 332.614016 L 789.343984 332.907987 L 789.477164 333.202160 L 789.609897 333.496535 L 789.742185 333.791110 L 789.874026 334.085886 L 790.005420 334.380861 L 790.136367 334.676034 L 790.266867 334.971406 L 790.396918 335.266975 L 790.526522 335.562741 L 790.655678 335.858703 L 790.784385 336.154861 L 790.912643 336.451213 L 791.040451 336.747759 L 791.167811 337.044498 L 791.294720 337.341430 L 791.421180 337.638554 L 856.803042 309.869779 L 856.634430 309.473613 L 856.465217 309.077704 L 856.295405 308.682051 L 856.124993 308.286656 L 855.953983 307.891520 L 855.782374 307.496644 L 855.610166 307.102028 L 855.437361 306.707673 L 855.263959 306.313581 L 855.089959 305.919752 L 854.915363 305.526187 L 854.740171 305.132887 L 854.564383 304.739853 L 854.388000 304.347086 L 854.211021 303.954586 L 854.033449 303.562355 L 853.855282 303.170394 L 853.676521 302.778703 L 853.497167 302.387283 L 853.317220 301.996136 L 853.136681 301.605262 L 852.955549 301.214662 L 852.773826 300.824336 L 852.591511 300.434287 L 852.408606 300.044514 L 852.225111 299.655019 L 852.041025 299.265802 L 851.856350 298.876865 L 851.671085 298.488208 L 851.485232 298.099832 L 851.298791 297.711738 L 851.111761 297.323927 L 850.924145 296.936400 L 850.735941 296.549158 L 850.547151 296.162202 L 850.357774 295.775532 L 850.167812 295.389149 L 849.977265 295.003055 L 849.786133 294.617249 L 849.594416 294.231734 L 849.402115 293.846510 L 849.209231 293.461578 L 849.015764 293.076938 L 848.821714 292.692592 L 848.627082 292.308541 L 848.431869 291.924785 L 848.236074 291.541325 L 848.039698 291.158162 L 847.842742 290.775297 L 847.645206 290.392731 L 847.447090 290.010465 L 847.248396 289.628500 L 847.049122 289.246836 L 846.849271 288.865474 L 846.648842 288.484416 L 846.447836 288.103662 L 846.246253 287.723213 Z " style="stroke-linecap: butt; stroke-width: 1; stroke: rgb(52%,80%,92%); fill: rgb(52%,80%,92%);"/>
               <path d="M 781.424690 317.206996 L 781.581671 317.489188 L 781.738224 317.771616 L 781.894348 318.054282 L 782.050044 318.337183 L 782.205311 318.620321 L 782.360149 318.903693 L 782.514558 319.187300 L 782.668536 319.471140 L 782.822084 319.755213 L 782.975202 320.039519 L 783.127888 320.324056 L 783.280143 320.608825 L 783.431967 320.893823 L 783.583358 321.179052 L 783.734317 321.464509 L 783.884844 321.750195 L 784.034937 322.036109 L 784.184597 322.322250 L 784.333823 322.608617 L 784.482615 322.895210 L 784.630973 323.182028 L 784.778895 323.469071 L 784.926383 323.756338 L 785.073435 324.043827 L 785.220052 324.331539 L 785.366232 324.619473 L 785.511976 324.907629 L 785.657283 325.196004 L 785.802153 325.484600 L 785.946585 325.773415 L 786.090579 326.062448 L 786.234136 326.351699 L 786.377254 326.641167 L 786.519933 326.930852 L 786.662173 327.220753 L 786.803973 327.510869 L 786.945334 327.801199 L 787.086255 328.091744 L 787.226735 328.382501 L 787.366775 328.673471 L 787.506373 328.964653 L 787.645530 329.256046 L 787.784246 329.547650 L 787.922519 329.839463 L 788.060350 330.131486 L 788.197738 330.423717 L 788.334684 330.716157 L 788.471186 331.008803 L 788.607244 331.301656 L 788.742859 331.594714 L 788.878029 331.887978 L 789.012755 332.181446 L 789.147036 332.475118 L 789.280871 332.768994 L 789.414262 333.063071 L 789.547206 333.357351 L 789.679705 333.651831 L 854.481076 304.554148 L 854.304411 304.161507 L 854.127152 303.769134 L 853.949298 303.377031 L 853.770851 302.985197 L 853.591809 302.593634 L 853.412175 302.202343 L 853.231948 301.811325 L 853.051129 301.420580 L 852.869717 301.030110 L 852.687715 300.639915 L 852.505121 300.249996 L 852.321936 299.860354 L 852.138162 299.470991 L 851.953797 299.081906 L 851.768843 298.693101 L 851.583301 298.304577 L 851.397169 297.916334 L 851.210450 297.528374 L 851.023143 297.140697 L 850.835249 296.753305 L 850.646768 296.366198 L 850.457700 295.979376 L 850.268047 295.592842 L 850.077808 295.206596 L 849.886984 294.820638 L 849.695576 294.434970 L 849.503583 294.049592 L 849.311006 293.664506 L 849.117847 293.279712 L 848.924104 292.895211 L 848.729779 292.511004 L 848.534872 292.127092 L 848.339384 291.743476 L 848.143314 291.360156 L 847.946664 290.977134 L 847.749433 290.594410 L 847.551623 290.211986 L 847.353234 289.829862 L 847.154266 289.448039 L 846.954719 289.066518 L 846.754595 288.685300 L 846.553893 288.304385 L 846.352614 287.923775 L 846.150759 287.543470 L 845.948328 287.163472 L 845.745321 286.783781 L 845.541739 286.404398 L 845.337582 286.025324 L 845.132851 285.646559 L 844.927546 285.268106 L 844.721669 284.889964 L 844.515218 284.512134 L 844.308195 284.134617 L 844.100601 283.757415 L 843.892435 283.380528 L 843.683698 283.003956 L 843.474390 282.627701 Z " style="stroke-width: 1; stroke-linecap: butt; stroke: rgb(52%,80%,92%); fill: rgb(52%,80%,92%);"/>
               <path d="M 492.782406 234.107564 L 493.065638 233.952471 L 493.349105 233.797806 L 493.632807 233.643572 L 493.916741 233.489767 L 494.200909 233.336393 L 494.485308 233.183450 L 494.769939 233.030938 L 495.054800 232.878858 L 495.339892 232.727209 L 495.625213 232.575992 L 495.910763 232.425208 L 496.196542 232.274857 L 496.482547 232.124939 L 496.768780 231.975454 L 497.055238 231.826404 L 497.341923 231.677788 L 497.628832 231.529606 L 497.915965 231.381859 L 498.203322 231.234548 L 498.490902 231.087672 L 498.778704 230.941232 L 499.066727 230.795228 L 499.354972 230.649661 L 499.643436 230.504531 L 499.932121 230.359838 L 500.221024 230.215583 L 500.510145 230.071765 L 500.799485 229.928386 L 501.089041 229.785446 L 501.378813 229.642944 L 501.668801 229.500882 L 501.959003 229.359259 L 502.249421 229.218076 L 502.540051 229.077334 L 502.830895 228.937032 L 503.121951 228.797171 L 503.413218 228.657751 L 503.704697 228.518772 L 503.996385 228.380236 L 504.288283 228.242141 L 504.580391 228.104489 L 504.872706 227.967280 L 505.165229 227.830514 L 505.457959 227.694192 L 505.750895 227.558313 L 506.044037 227.422878 L 506.337383 227.287887 L 506.630934 227.153341 L 506.924688 227.019241 L 507.218646 226.885585 L 507.512805 226.752375 L 507.807166 226.619611 L 508.101728 226.487293 L 508.396490 226.355422 L 508.691451 226.223997 L 508.986611 226.093019 L 509.281970 225.962489 L 480.617429 160.968358 L 480.223618 161.142399 L 479.830071 161.317035 L 479.436789 161.492268 L 479.043773 161.668097 L 478.651024 161.844520 L 478.258543 162.021539 L 477.866331 162.199153 L 477.474388 162.377360 L 477.082715 162.556161 L 476.691314 162.735556 L 476.300185 162.915543 L 475.909330 163.096123 L 475.518748 163.277295 L 475.128442 163.459058 L 474.738411 163.641413 L 474.348657 163.824359 L 473.959181 164.007894 L 473.569983 164.192020 L 473.181065 164.376736 L 472.792427 164.562040 L 472.404071 164.747934 L 472.015996 164.934415 L 471.628205 165.121484 L 471.240697 165.309141 L 470.853474 165.497385 L 470.466537 165.686215 L 470.079887 165.875632 L 469.693524 166.065634 L 469.307449 166.256221 L 468.921664 166.447393 L 468.536168 166.639149 L 468.150964 166.831490 L 467.766052 167.024414 L 467.381432 167.217920 L 466.997106 167.412010 L 466.613075 167.606682 L 466.229339 167.801935 L 465.845899 167.997769 L 465.462757 168.194185 L 465.079912 168.391181 L 464.697367 168.588756 L 464.315121 168.786911 L 463.933176 168.985645 L 463.551533 169.184958 L 463.170192 169.384849 L 462.789154 169.585317 L 462.408421 169.786362 L 462.027993 169.987984 L 461.647870 170.190183 L 461.268055 170.392957 L 460.888547 170.596306 L 460.509348 170.800231 L 460.130458 171.004729 L 459.751879 171.209802 L 459.373610 171.415448 L 458.995654 171.621667 L 458.618011 171.828458 Z " style="stroke-linecap: butt; stroke-width: 1; stroke: rgb(52%,80%,92%); fill: rgb(52%,80%,92%);"/>
               <path d="M 476.768696 243.831494 L 477.037213 243.652123 L 477.306000 243.473160 L 477.575059 243.294604 L 477.844388 243.116457 L 478.113986 242.938717 L 478.383854 242.761386 L 478.653989 242.584465 L 478.924393 242.407953 L 479.195064 242.231850 L 479.466001 242.056159 L 479.737205 241.880878 L 480.008673 241.706008 L 480.280406 241.531549 L 480.552404 241.357503 L 480.824664 241.183869 L 481.097188 241.010648 L 481.369973 240.837840 L 481.643021 240.665445 L 481.916329 240.493464 L 482.189897 240.321898 L 482.463725 240.150747 L 482.737812 239.980010 L 483.012158 239.809689 L 483.286761 239.639784 L 483.561622 239.470296 L 483.836738 239.301224 L 484.112111 239.132569 L 484.387739 238.964332 L 484.663622 238.796512 L 484.939759 238.629111 L 485.216149 238.462128 L 485.492791 238.295564 L 485.769686 238.129420 L 486.046832 237.963695 L 486.324229 237.798391 L 486.601877 237.633507 L 486.879773 237.469044 L 487.157919 237.305002 L 487.436313 237.141382 L 487.714954 236.978184 L 487.993843 236.815409 L 488.272977 236.653056 L 488.552358 236.491126 L 488.831983 236.329620 L 489.111853 236.168538 L 489.391967 236.007880 L 489.672324 235.847647 L 489.952923 235.687839 L 490.233764 235.528456 L 490.514847 235.369499 L 490.796170 235.210968 L 491.077732 235.052863 L 491.359534 234.895185 L 491.641575 234.737935 L 491.923854 234.581112 L 492.206370 234.424717 L 492.489122 234.268750 L 458.226966 172.043373 L 457.849963 172.251329 L 457.473275 172.459855 L 457.096903 172.668953 L 456.720849 172.878620 L 456.345113 173.088857 L 455.969696 173.299663 L 455.594599 173.511038 L 455.219822 173.722981 L 454.845368 173.935491 L 454.471235 174.148569 L 454.097426 174.362213 L 453.723941 174.576424 L 453.350781 174.791200 L 452.977947 175.006541 L 452.605440 175.222447 L 452.233260 175.438918 L 451.861409 175.655952 L 451.489887 175.873549 L 451.118695 176.091709 L 450.747834 176.310431 L 450.377305 176.529715 L 450.007109 176.749561 L 449.637246 176.969966 L 449.267718 177.190933 L 448.898525 177.412458 L 448.529668 177.634543 L 448.161148 177.857187 L 447.792966 178.080389 L 447.425122 178.304148 L 447.057618 178.528465 L 446.690454 178.753338 L 446.323632 178.978767 L 445.957151 179.204752 L 445.591014 179.431292 L 445.225220 179.658386 L 444.859770 179.886035 L 444.494666 180.114237 L 444.129908 180.342992 L 443.765497 180.572300 L 443.401434 180.802159 L 443.037720 181.032570 L 442.674356 181.263531 L 442.311341 181.495043 L 441.948678 181.727105 L 441.586367 181.959716 L 441.224409 182.192876 L 440.862805 182.426584 L 440.501555 182.660840 L 440.140661 182.895643 L 439.780122 183.130992 L 439.419941 183.366888 L 439.060118 183.603329 L 438.700653 183.840315 L 438.341548 184.077845 L 437.982804 184.315919 L 437.624420 184.554537 L 437.266398 184.793697 Z " style="stroke-width: 1; stroke-linecap: butt; stroke: rgb(52%,80%,92%); fill: rgb(52%,80%,92%);"/>
               <path d="M 807.974245 434.071904 L 807.952997 434.411770 L 807.931206 434.751601 L 807.908872 435.091398 L 807.885995 435.431158 L 807.862575 435.770881 L 807.838612 436.110566 L 807.814107 436.450213 L 807.789059 436.789820 L 807.763468 437.129386 L 807.737335 437.468911 L 807.710659 437.808394 L 807.683440 438.147834 L 807.655680 438.487230 L 807.627377 438.826581 L 807.598531 439.165887 L 807.569144 439.505146 L 807.539215 439.844358 L 807.508743 440.183521 L 807.477730 440.522635 L 807.446174 440.861700 L 807.414077 441.200713 L 807.381439 441.539675 L 807.348258 441.878584 L 807.314536 442.217439 L 807.280273 442.556241 L 807.245469 442.894987 L 807.210123 443.233677 L 807.174236 443.572310 L 807.137807 443.910886 L 807.100838 444.249402 L 807.063328 444.587860 L 807.025278 444.926256 L 806.986686 445.264592 L 806.947554 445.602866 L 806.907881 445.941076 L 806.867668 446.279223 L 806.826915 446.617305 L 806.785622 446.955321 L 806.743788 447.293272 L 806.701415 447.631154 L 806.658501 447.968969 L 806.615048 448.306715 L 806.571055 448.644390 L 806.526523 448.981996 L 806.481451 449.319529 L 806.435840 449.656990 L 806.389690 449.994378 L 806.343001 450.331691 L 806.295773 450.668930 L 806.248006 451.006092 L 806.199700 451.343178 L 806.150855 451.680186 L 806.101473 452.017116 L 806.051551 452.353967 L 806.001092 452.690737 L 805.950095 453.027426 L 805.898559 453.364033 L 876.106215 464.170417 L 876.174929 463.721607 L 876.242926 463.272688 L 876.310205 462.823661 L 876.376767 462.374528 L 876.442610 461.925288 L 876.507736 461.475944 L 876.572144 461.026496 L 876.635833 460.576946 L 876.698804 460.127294 L 876.761057 459.677543 L 876.822590 459.227693 L 876.883405 458.777745 L 876.943501 458.327700 L 877.002877 457.877560 L 877.061534 457.427326 L 877.119472 456.976998 L 877.176689 456.526579 L 877.233187 456.076068 L 877.288966 455.625468 L 877.344023 455.174779 L 877.398361 454.724003 L 877.451978 454.273141 L 877.504875 453.822193 L 877.557051 453.371162 L 877.608507 452.920048 L 877.659241 452.468852 L 877.709254 452.017576 L 877.758546 451.566220 L 877.807117 451.114786 L 877.854967 450.663275 L 877.902094 450.211689 L 877.948501 449.760027 L 877.994185 449.308292 L 878.039148 448.856484 L 878.083388 448.404606 L 878.126906 447.952657 L 878.169702 447.500639 L 878.211776 447.048553 L 878.253127 446.596401 L 878.293756 446.144183 L 878.333662 445.691901 L 878.372845 445.239555 L 878.411305 444.787148 L 878.449043 444.334680 L 878.486057 443.882152 L 878.522348 443.429565 L 878.557916 442.976921 L 878.592761 442.524221 L 878.626882 442.071466 L 878.660279 441.618656 L 878.692953 441.165794 L 878.724903 440.712880 L 878.756130 440.259916 L 878.786632 439.806903 L 878.816411 439.353841 L 878.845466 438.900732 L 878.873796 438.447578 Z " style="stroke-linecap: butt; stroke-width: 1; stroke: rgb(0%,0%,50%); fill: rgb(0%,0%,50%);"/>
               <path d="M 592.263766 634.026944 L 591.923275 634.021859 L 591.582792 634.016230 L 591.242318 634.010057 L 590.901855 634.003340 L 590.561403 633.996079 L 590.220963 633.988274 L 589.880536 633.979925 L 589.540123 633.971032 L 589.199724 633.961595 L 588.859341 633.951614 L 588.518974 633.941089 L 588.178625 633.930021 L 587.838293 633.918408 L 587.497981 633.906252 L 587.157688 633.893552 L 586.817416 633.880308 L 586.477166 633.866520 L 586.136939 633.852189 L 585.796734 633.837314 L 585.456554 633.821895 L 585.116399 633.805933 L 584.776270 633.789427 L 584.436167 633.772378 L 584.096092 633.754786 L 583.756046 633.736650 L 583.416030 633.717970 L 583.076043 633.698747 L 582.736088 633.678982 L 582.396164 633.658672 L 582.056274 633.637820 L 581.716417 633.616425 L 581.376595 633.594486 L 581.036809 633.572005 L 580.697059 633.548980 L 580.357346 633.525413 L 580.017671 633.501303 L 579.678035 633.476650 L 579.338439 633.451455 L 578.998884 633.425717 L 578.659370 633.399436 L 578.319898 633.372613 L 577.980470 633.345247 L 577.641086 633.317339 L 577.301747 633.288889 L 576.962454 633.259896 L 576.623208 633.230362 L 576.284010 633.200285 L 575.944859 633.169666 L 575.605759 633.138506 L 575.266708 633.106803 L 574.927709 633.074559 L 574.588761 633.041773 L 574.249867 633.008446 L 573.911026 632.974577 L 573.572239 632.940167 L 573.233508 632.905215 L 572.894833 632.869722 L 565.434581 703.511336 L 565.886147 703.558660 L 566.337789 703.605262 L 566.789504 703.651142 L 567.241292 703.696301 L 567.693151 703.740737 L 568.145081 703.784452 L 568.597081 703.827444 L 569.049148 703.869714 L 569.501282 703.911261 L 569.953483 703.952086 L 570.405747 703.992188 L 570.858076 704.031568 L 571.310466 704.070224 L 571.762918 704.108158 L 572.215430 704.145369 L 572.668001 704.181856 L 573.120629 704.217620 L 573.573314 704.252661 L 574.026055 704.286979 L 574.478850 704.320573 L 574.931698 704.353443 L 575.384597 704.385590 L 575.837548 704.417013 L 576.290548 704.447712 L 576.743597 704.477688 L 577.196693 704.506939 L 577.649835 704.535466 L 578.103022 704.563269 L 578.556254 704.590348 L 579.009527 704.616703 L 579.462843 704.642333 L 579.916198 704.667239 L 580.369593 704.691420 L 580.823026 704.714877 L 581.276496 704.737609 L 581.730001 704.759617 L 582.183542 704.780900 L 582.637115 704.801458 L 583.090721 704.821291 L 583.544358 704.840399 L 583.998025 704.858783 L 584.451721 704.876442 L 584.905444 704.893375 L 585.359194 704.909584 L 585.812969 704.925067 L 586.266769 704.939825 L 586.720591 704.953858 L 587.174435 704.967166 L 587.628300 704.979749 L 588.082184 704.991606 L 588.536087 705.002738 L 588.990007 705.013145 L 589.443943 705.022826 L 589.897894 705.031782 L 590.351859 705.040013 L 590.805836 705.047518 L 591.259825 705.054298 Z " style="stroke-width: 1; stroke-linecap: butt; stroke: rgb(0%,0%,50%); fill: rgb(0%,0%,50%);"/>
               <path d="M 594.606275 634.047177 L 594.277491 634.045891 L 593.948708 634.044097 L 593.619929 634.041797 L 593.291154 634.038989 L 592.962384 634.035673 L 592.633619 634.031851 L 592.304861 634.027521 L 591.976109 634.022684 L 591.647365 634.017340 L 591.318630 634.011488 L 590.989905 634.005130 L 590.661190 633.998264 L 590.332485 633.990891 L 590.003793 633.983011 L 589.675112 633.974624 L 589.346446 633.965729 L 589.017793 633.956328 L 588.689155 633.946420 L 588.360533 633.936004 L 588.031928 633.925082 L 587.703339 633.913653 L 587.374769 633.901716 L 587.046218 633.889273 L 586.717686 633.876323 L 586.389174 633.862866 L 586.060684 633.848902 L 585.732215 633.834431 L 585.403770 633.819454 L 585.075347 633.803970 L 584.746949 633.787979 L 584.418576 633.771482 L 584.090229 633.754477 L 583.761909 633.736967 L 583.433616 633.718950 L 583.105351 633.700426 L 582.777115 633.681396 L 582.448909 633.661859 L 582.120733 633.641817 L 581.792589 633.621267 L 581.464477 633.600212 L 581.136398 633.578650 L 580.808352 633.556583 L 580.480341 633.534009 L 580.152365 633.510929 L 579.824425 633.487343 L 579.496522 633.463251 L 579.168656 633.438653 L 578.840829 633.413550 L 578.513041 633.387941 L 578.185292 633.361826 L 577.857585 633.335205 L 577.529919 633.308079 L 577.202295 633.280447 L 576.874714 633.252310 L 576.547177 633.223667 L 576.219684 633.194520 L 575.892237 633.164867 L 569.431119 703.904861 L 569.867715 703.944399 L 570.304372 703.983263 L 570.741088 704.021453 L 571.177863 704.058969 L 571.614695 704.095811 L 572.051583 704.131979 L 572.488526 704.167474 L 572.925524 704.202293 L 573.362575 704.236439 L 573.799678 704.269911 L 574.236832 704.302708 L 574.674036 704.334830 L 575.111290 704.366278 L 575.548591 704.397051 L 575.985939 704.427150 L 576.423333 704.456573 L 576.860773 704.485322 L 577.298255 704.513396 L 577.735781 704.540795 L 578.173349 704.567519 L 578.610957 704.593567 L 579.048605 704.618941 L 579.486291 704.643639 L 579.924015 704.667662 L 580.361776 704.691009 L 580.799572 704.713681 L 581.237402 704.735678 L 581.675266 704.756999 L 582.113163 704.777645 L 582.551090 704.797614 L 582.989048 704.816909 L 583.427035 704.835527 L 583.865051 704.853470 L 584.303093 704.870737 L 584.741162 704.887328 L 585.179256 704.903243 L 585.617374 704.918482 L 586.055514 704.933045 L 586.493677 704.946932 L 586.931861 704.960144 L 587.370064 704.972679 L 587.808286 704.984538 L 588.246527 704.995721 L 588.684783 705.006227 L 589.123056 705.016058 L 589.561343 705.025212 L 589.999644 705.033690 L 590.437957 705.041492 L 590.876282 705.048618 L 591.314617 705.055067 L 591.752962 705.060840 L 592.191315 705.065937 L 592.629676 705.070357 L 593.068042 705.074101 L 593.506414 705.077169 L 593.944791 705.079561 L 594.383170 705.081276 Z " style="stroke-linecap: butt; stroke-width: 1; stroke: rgb(100%,0%,100%); fill: rgb(100%,0%,100%);"/>
               <path d="M 808.052507 432.735563 L 808.034062 433.063832 L 808.015111 433.392072 L 807.995654 433.720283 L 807.975690 434.048464 L 807.955220 434.376613 L 807.934244 434.704730 L 807.912761 435.032815 L 807.890773 435.360865 L 807.868278 435.688882 L 807.845277 436.016864 L 807.821770 436.344809 L 807.797757 436.672718 L 807.773239 437.000590 L 807.748214 437.328423 L 807.722684 437.656218 L 807.696648 437.983972 L 807.670106 438.311686 L 807.643059 438.639359 L 807.615507 438.966989 L 807.587448 439.294577 L 807.558885 439.622121 L 807.529816 439.949621 L 807.500242 440.277075 L 807.470162 440.604483 L 807.439578 440.931844 L 807.408489 441.259158 L 807.376894 441.586424 L 807.344795 441.913640 L 807.312191 442.240807 L 807.279082 442.567923 L 807.245469 442.894987 L 807.211350 443.221999 L 807.176728 443.548958 L 807.141601 443.875863 L 807.105970 444.202714 L 807.069834 444.529509 L 807.033195 444.856248 L 806.996051 445.182930 L 806.958403 445.509555 L 806.920251 445.836121 L 806.881596 446.162628 L 806.842437 446.489075 L 806.802774 446.815461 L 806.762608 447.141785 L 806.721938 447.468047 L 806.680765 447.794246 L 806.639089 448.120381 L 806.596910 448.446451 L 806.554227 448.772456 L 806.511042 449.098395 L 806.467354 449.424266 L 806.423163 449.750070 L 806.378470 450.075805 L 806.333274 450.401471 L 806.287575 450.727067 L 806.241375 451.052592 L 806.194672 451.378045 L 876.501032 461.522432 L 876.563303 461.088495 L 876.624904 460.654462 L 876.685835 460.220334 L 876.746096 459.786113 L 876.805687 459.351799 L 876.864608 458.917394 L 876.922859 458.482899 L 876.980440 458.048314 L 877.037350 457.613641 L 877.093589 457.178880 L 877.149157 456.744034 L 877.204054 456.309102 L 877.258280 455.874086 L 877.311835 455.438987 L 877.364719 455.003806 L 877.416931 454.568543 L 877.468472 454.133201 L 877.519341 453.697779 L 877.569538 453.262280 L 877.619062 452.826704 L 877.667915 452.391052 L 877.716096 451.955324 L 877.763604 451.519524 L 877.810440 451.083650 L 877.856604 450.647705 L 877.902094 450.211689 L 877.946912 449.775603 L 877.991058 449.339448 L 878.034530 448.903226 L 878.077329 448.466938 L 878.119455 448.030584 L 878.160907 447.594165 L 878.201686 447.157683 L 878.241792 446.721139 L 878.281224 446.284533 L 878.319983 445.847867 L 878.358068 445.411142 L 878.395479 444.974359 L 878.432215 444.537518 L 878.468278 444.100621 L 878.503667 443.663669 L 878.538382 443.226663 L 878.572422 442.789604 L 878.605788 442.352493 L 878.638480 441.915330 L 878.670497 441.478118 L 878.701839 441.040858 L 878.732507 440.603549 L 878.762500 440.166193 L 878.791818 439.728792 L 878.820462 439.291346 L 878.848430 438.853856 L 878.875724 438.416324 L 878.902342 437.978750 L 878.928285 437.541136 L 878.953553 437.103482 L 878.978146 436.665790 Z " style="stroke-width: 1; stroke-linecap: butt; stroke: rgb(90%,90%,98%); fill: rgb(90%,90%,98%);"/>
               <path d="M 807.767475 437.076697 L 807.742333 437.404522 L 807.716685 437.732307 L 807.690532 438.060052 L 807.663873 438.387757 L 807.636708 438.715420 L 807.609038 439.043040 L 807.580863 439.370618 L 807.552182 439.698152 L 807.522996 440.025641 L 807.493304 440.353084 L 807.463108 440.680482 L 807.432406 441.007832 L 807.401199 441.335135 L 807.369488 441.662389 L 807.337271 441.989594 L 807.304550 442.316749 L 807.271324 442.643853 L 807.237593 442.970905 L 807.203358 443.297905 L 807.168618 443.624851 L 807.133374 443.951744 L 807.097626 444.278582 L 807.061373 444.605364 L 807.024617 444.932090 L 806.987356 445.258759 L 806.949591 445.585370 L 806.911323 445.911923 L 806.872550 446.238415 L 806.833274 446.564848 L 806.793495 446.891220 L 806.753212 447.217530 L 806.712425 447.543777 L 806.671135 447.869961 L 806.629342 448.196082 L 806.587046 448.522137 L 806.544247 448.848126 L 806.500945 449.174049 L 806.457140 449.499905 L 806.412833 449.825693 L 806.368023 450.151412 L 806.322710 450.477062 L 806.276895 450.802641 L 806.230578 451.128150 L 806.183758 451.453586 L 806.136437 451.778950 L 806.088614 452.104240 L 806.040288 452.429457 L 805.991461 452.754598 L 805.942133 453.079663 L 805.892303 453.404652 L 805.841972 453.729564 L 805.791139 454.054398 L 805.739806 454.379153 L 805.687971 454.703828 L 805.635635 455.028423 L 805.582799 455.352937 L 805.529462 455.677369 L 875.614086 467.254865 L 875.685202 466.822289 L 875.755650 466.389604 L 875.825431 465.956811 L 875.894544 465.523910 L 875.962989 465.090903 L 876.030765 464.657792 L 876.097874 464.224576 L 876.164314 463.791257 L 876.230085 463.357836 L 876.295188 462.924315 L 876.359621 462.490693 L 876.423386 462.056972 L 876.486481 461.623154 L 876.548907 461.189239 L 876.610663 460.755228 L 876.671750 460.321122 L 876.732167 459.886922 L 876.791913 459.452630 L 876.850990 459.018246 L 876.909397 458.583772 L 876.967133 458.149208 L 877.024198 457.714555 L 877.080593 457.279815 L 877.136317 456.844988 L 877.191370 456.410076 L 877.245752 455.975079 L 877.299463 455.539999 L 877.352502 455.104837 L 877.404870 454.669593 L 877.456567 454.234269 L 877.507592 453.798866 L 877.557945 453.363385 L 877.607626 452.927826 L 877.656634 452.492192 L 877.704971 452.056482 L 877.752636 451.620698 L 877.799628 451.184841 L 877.845947 450.748913 L 877.891594 450.312913 L 877.936568 449.876843 L 877.980870 449.440705 L 878.024498 449.004498 L 878.067453 448.568225 L 878.109735 448.131886 L 878.151344 447.695482 L 878.192280 447.259015 L 878.232542 446.822485 L 878.272130 446.385894 L 878.311045 445.949242 L 878.349287 445.512530 L 878.386854 445.075760 L 878.423747 444.638932 L 878.459967 444.202048 L 878.495512 443.765109 L 878.530383 443.328115 L 878.564580 442.891069 L 878.598103 442.453969 Z " style="stroke-linecap: butt; stroke-width: 1; stroke: rgb(96%,100%,98%); fill: rgb(96%,100%,98%);"/>
               <path d="M 589.587075 633.972291 L 589.258412 633.963261 L 588.929764 633.953724 L 588.601130 633.943680 L 588.272512 633.933128 L 587.943911 633.922070 L 587.615328 633.910505 L 587.286762 633.898433 L 586.958216 633.885854 L 586.629689 633.872768 L 586.301184 633.859175 L 585.972699 633.845076 L 585.644236 633.830469 L 585.315797 633.815356 L 584.987381 633.799736 L 584.658990 633.783610 L 584.330624 633.766977 L 584.002284 633.749837 L 583.673971 633.732190 L 583.345685 633.714038 L 583.017428 633.695378 L 582.689200 633.676213 L 582.361002 633.656540 L 582.032835 633.636362 L 581.704699 633.615677 L 581.376595 633.594486 L 581.048525 633.572789 L 580.720489 633.550586 L 580.392487 633.527876 L 580.064520 633.504661 L 579.736590 633.480939 L 579.408697 633.456712 L 579.080841 633.431979 L 578.753024 633.406740 L 578.425247 633.380995 L 578.097509 633.354745 L 577.769813 633.327989 L 577.442158 633.300727 L 577.114546 633.272960 L 576.786976 633.244687 L 576.459451 633.215910 L 576.131971 633.186626 L 575.804536 633.156838 L 575.477147 633.126544 L 575.149806 633.095746 L 574.822512 633.064442 L 574.495268 633.032634 L 574.168072 633.000320 L 573.840927 632.967502 L 573.513833 632.934179 L 573.186791 632.900352 L 572.859801 632.866020 L 572.532865 632.831183 L 572.205983 632.795842 L 571.879156 632.759997 L 571.552384 632.723648 L 571.225669 632.686794 L 570.899011 632.649437 L 562.773485 703.217622 L 563.209028 703.267432 L 563.644649 703.316570 L 564.080344 703.365036 L 564.516114 703.412829 L 564.951957 703.459950 L 565.387872 703.506399 L 565.823858 703.552175 L 566.259914 703.597278 L 566.696040 703.641709 L 567.132233 703.685466 L 567.568493 703.728551 L 568.004820 703.770962 L 568.441211 703.812700 L 568.877666 703.853765 L 569.314184 703.894157 L 569.750764 703.933874 L 570.187405 703.972919 L 570.624105 704.011289 L 571.060864 704.048986 L 571.497680 704.086009 L 571.934554 704.122358 L 572.371482 704.158032 L 572.808466 704.193033 L 573.245502 704.227359 L 573.682592 704.261011 L 574.119732 704.293989 L 574.556923 704.326292 L 574.994164 704.357920 L 575.431452 704.388874 L 575.868788 704.419154 L 576.306170 704.448758 L 576.743597 704.477688 L 577.181068 704.505942 L 577.618583 704.533522 L 578.056139 704.560427 L 578.493736 704.586656 L 578.931374 704.612210 L 579.369050 704.637090 L 579.806764 704.661293 L 580.244515 704.684822 L 580.682301 704.707675 L 581.120123 704.729852 L 581.557978 704.751354 L 581.995866 704.772181 L 582.433785 704.792332 L 582.871735 704.811807 L 583.309715 704.830606 L 583.747722 704.848730 L 584.185758 704.866178 L 584.623820 704.882950 L 585.061907 704.899046 L 585.500018 704.914466 L 585.938153 704.929211 L 586.376310 704.943279 L 586.814488 704.956671 L 587.252686 704.969387 L 587.690904 704.981427 Z " style="stroke-width: 1; stroke-linecap: butt; stroke: rgb(0%,50%,50%); fill: rgb(0%,50%,50%);"/>
               <path d="M 659.199615 624.234713 L 658.897100 624.329591 L 658.594444 624.424019 L 658.291648 624.517996 L 657.988712 624.611523 L 657.685638 624.704599 L 657.382425 624.797224 L 657.079075 624.889398 L 656.775588 624.981120 L 656.471965 625.072391 L 656.168206 625.163210 L 655.864313 625.253577 L 655.560286 625.343492 L 655.256125 625.432954 L 654.951831 625.521964 L 654.647406 625.610521 L 654.342848 625.698625 L 654.038161 625.786276 L 653.733343 625.873473 L 653.428395 625.960217 L 653.123319 626.046507 L 652.818115 626.132343 L 652.512784 626.217725 L 652.207326 626.302652 L 651.901742 626.387125 L 651.596032 626.471143 L 651.290198 626.554707 L 650.984240 626.637815 L 650.678159 626.720468 L 650.371955 626.802665 L 650.065629 626.884407 L 649.759182 626.965693 L 649.452614 627.046523 L 649.145926 627.126897 L 648.839119 627.206814 L 648.532194 627.286275 L 648.225150 627.365279 L 647.917990 627.443826 L 647.610712 627.521917 L 647.303319 627.599550 L 646.995811 627.676725 L 646.688189 627.753443 L 646.380452 627.829703 L 646.072603 627.905506 L 645.764641 627.980850 L 645.456567 628.055736 L 645.148382 628.130164 L 644.840087 628.204132 L 644.531682 628.277643 L 644.223168 628.350694 L 643.914546 628.423286 L 643.605816 628.495419 L 643.296979 628.567093 L 642.988036 628.638307 L 642.678987 628.709061 L 642.369834 628.779356 L 642.060576 628.849190 L 641.751214 628.918565 L 657.243089 698.243125 L 657.655571 698.150626 L 658.067915 698.057514 L 658.480120 697.963788 L 658.892185 697.869449 L 659.304109 697.774497 L 659.715891 697.678932 L 660.127531 697.582754 L 660.539028 697.485965 L 660.950379 697.388563 L 661.361586 697.290549 L 661.772646 697.191924 L 662.183559 697.092687 L 662.594324 696.992839 L 663.004940 696.892380 L 663.415406 696.791311 L 663.825721 696.689630 L 664.235885 696.587340 L 664.645896 696.484439 L 665.055753 696.380928 L 665.465456 696.276808 L 665.875003 696.172078 L 666.284395 696.066739 L 666.693629 695.960792 L 667.102705 695.854235 L 667.511622 695.747070 L 667.920379 695.639297 L 668.328975 695.530915 L 668.737410 695.421926 L 669.145682 695.312330 L 669.553790 695.202126 L 669.961734 695.091315 L 670.369513 694.979897 L 670.777126 694.867873 L 671.184571 694.755242 L 671.591849 694.642005 L 671.998957 694.528163 L 672.405896 694.413715 L 672.812664 694.298662 L 673.219260 694.183003 L 673.625684 694.066740 L 674.031934 693.949873 L 674.438011 693.832401 L 674.843911 693.714325 L 675.249636 693.595645 L 675.655184 693.476362 L 676.060554 693.356476 L 676.465745 693.235986 L 676.870756 693.114894 L 677.275587 692.993200 L 677.680236 692.870903 L 678.084703 692.748005 L 678.488987 692.624505 L 678.893086 692.500403 L 679.297000 692.375701 L 679.700728 692.250397 L 680.104270 692.124494 L 680.507624 691.997990 Z " style="stroke-linecap: butt; stroke-width: 1; stroke: rgb(100%,64%,0%); fill: rgb(100%,64%,0%);"/>
               <path d="M 737.923439 579.263004 L 737.687743 579.475053 L 737.451732 579.686751 L 737.215406 579.898098 L 736.978767 580.109093 L 736.741813 580.319736 L 736.504547 580.530026 L 736.266967 580.739963 L 736.029076 580.949546 L 735.790873 581.158775 L 735.552360 581.367649 L 735.313535 581.576169 L 735.074401 581.784332 L 734.834958 581.992140 L 734.595205 582.199591 L 734.355144 582.406686 L 734.114775 582.613423 L 733.874099 582.819802 L 733.633116 583.025823 L 733.391827 583.231485 L 733.150232 583.436788 L 732.908332 583.641731 L 732.666128 583.846314 L 732.423619 584.050536 L 732.180807 584.254398 L 731.937692 584.457898 L 731.694274 584.661036 L 731.450554 584.863812 L 731.206533 585.066225 L 730.962211 585.268274 L 730.717588 585.469960 L 730.472666 585.671282 L 730.227445 585.872239 L 729.981925 586.072832 L 729.736107 586.273058 L 729.489991 586.472919 L 729.243578 586.672413 L 728.996868 586.871541 L 728.749863 587.070301 L 728.502562 587.268694 L 728.254966 587.466718 L 728.007076 587.664374 L 727.758892 587.861661 L 727.510415 588.058578 L 727.261645 588.255125 L 727.012583 588.451303 L 726.763230 588.647109 L 726.513585 588.842544 L 726.263650 589.037608 L 726.013425 589.232299 L 725.762911 589.426618 L 725.512108 589.620564 L 725.261016 589.814137 L 725.009637 590.007336 L 724.757971 590.200161 L 724.506018 590.392611 L 724.253779 590.584686 L 724.001255 590.776386 L 766.909809 647.386887 L 767.246509 647.131287 L 767.582827 646.875187 L 767.918764 646.618587 L 768.254320 646.361487 L 768.589492 646.103889 L 768.924280 645.845792 L 769.258685 645.587197 L 769.592704 645.328105 L 769.926337 645.068516 L 770.259584 644.808432 L 770.592443 644.547851 L 770.924914 644.286776 L 771.256997 644.025207 L 771.588690 643.763143 L 771.919993 643.500587 L 772.250905 643.237538 L 772.581425 642.973997 L 772.911553 642.709964 L 773.241287 642.445441 L 773.570628 642.180427 L 773.899574 641.914924 L 774.228124 641.648931 L 774.556279 641.382450 L 774.884036 641.115481 L 775.211396 640.848025 L 775.538358 640.580082 L 775.864921 640.311653 L 776.191084 640.042739 L 776.516847 639.773339 L 776.842208 639.503455 L 777.167168 639.233088 L 777.491725 638.962237 L 777.815879 638.690903 L 778.139629 638.419088 L 778.462974 638.146791 L 778.785913 637.874014 L 779.108446 637.600756 L 779.430573 637.327019 L 779.752292 637.052803 L 780.073602 636.778108 L 780.394503 636.502936 L 780.714995 636.227287 L 781.035076 635.951161 L 781.354746 635.674559 L 781.674005 635.397482 L 781.992850 635.119931 L 782.311283 634.841905 L 782.629301 634.563406 L 782.946905 634.284434 L 783.264093 634.004990 L 783.580865 633.725074 L 783.897221 633.444687 L 784.213159 633.163830 L 784.528678 632.882504 L 784.843779 632.600708 L 785.158460 632.318443 L 785.472721 632.035711 Z " style="stroke-width: 1; stroke-linecap: butt; stroke: rgb(100%,64%,0%); fill: rgb(100%,64%,0%);"/>
               <path d="M 755.318058 561.655382 L 755.108539 561.893329 L 754.898666 562.130965 L 754.688440 562.368288 L 754.477861 562.605298 L 754.266929 562.841994 L 754.055646 563.078377 L 753.844011 563.314444 L 753.632025 563.550197 L 753.419689 563.785634 L 753.207002 564.020755 L 752.993966 564.255559 L 752.780581 564.490046 L 752.566848 564.724215 L 752.352766 564.958066 L 752.138336 565.191599 L 751.923560 565.424812 L 751.708436 565.657705 L 751.492966 565.890278 L 751.277151 566.122530 L 751.060990 566.354460 L 750.844485 566.586069 L 750.627635 566.817356 L 750.410441 567.048319 L 750.192904 567.278960 L 749.975024 567.509276 L 749.756801 567.739268 L 749.538237 567.968935 L 749.319331 568.198276 L 749.100084 568.427292 L 748.880497 568.655981 L 748.660570 568.884344 L 748.440303 569.112379 L 748.219698 569.340085 L 747.998753 569.567464 L 747.777471 569.794513 L 747.555851 570.021233 L 747.333894 570.247623 L 747.111601 570.473683 L 746.888971 570.699411 L 746.666006 570.924809 L 746.442706 571.149874 L 746.219071 571.374606 L 745.995102 571.599006 L 745.770799 571.823072 L 745.546164 572.046805 L 745.321196 572.270203 L 745.095895 572.493266 L 744.870263 572.715993 L 744.644300 572.938385 L 744.418006 573.160440 L 744.191383 573.382158 L 743.964429 573.603539 L 743.737147 573.824582 L 743.509536 574.045286 L 743.281596 574.265652 L 743.053330 574.485678 L 742.824736 574.705365 L 792.007784 625.958859 L 792.312576 625.665944 L 792.616932 625.372575 L 792.920851 625.078754 L 793.224332 624.784482 L 793.527375 624.489758 L 793.829980 624.194583 L 794.132145 623.898959 L 794.433870 623.602886 L 794.735154 623.306363 L 795.035997 623.009393 L 795.336397 622.711976 L 795.636355 622.414112 L 795.935869 622.115803 L 796.234939 621.817048 L 796.533564 621.517848 L 796.831744 621.218204 L 797.129478 620.918117 L 797.426765 620.617588 L 797.723604 620.316616 L 798.019995 620.015204 L 798.315938 619.713350 L 798.611431 619.411057 L 798.906474 619.108324 L 799.201066 618.805153 L 799.495207 618.501544 L 799.788896 618.197498 L 800.082133 617.893015 L 800.374916 617.588096 L 800.667245 617.282741 L 800.959119 616.976953 L 801.250538 616.670730 L 801.541502 616.364074 L 801.832008 616.056986 L 802.122058 615.749465 L 802.411649 615.441514 L 802.700783 615.133132 L 802.989457 614.824320 L 803.277671 614.515079 L 803.565425 614.205410 L 803.852718 613.895312 L 804.139549 613.584788 L 804.425918 613.273838 L 804.711824 612.962461 L 804.997267 612.650660 L 805.282245 612.338434 L 805.566758 612.025785 L 805.850806 611.712713 L 806.134388 611.399218 L 806.417503 611.085302 L 806.700151 610.770965 L 806.982331 610.456208 L 807.264042 610.141032 L 807.545284 609.825437 L 807.826056 609.509423 L 808.106358 609.192992 L 808.386189 608.876145 L 808.665548 608.558882 Z " style="stroke-linecap: butt; stroke-width: 1; stroke: rgb(100%,64%,0%); fill: rgb(100%,64%,0%);"/>
               <path d="M 758.157148 558.358980 L 757.952530 558.601155 L 757.747552 558.843026 L 757.542214 559.084591 L 757.336517 559.325850 L 757.130462 559.566803 L 756.924048 559.807449 L 756.717276 560.047788 L 756.510147 560.287819 L 756.302661 560.527542 L 756.094818 560.766955 L 755.886620 561.006059 L 755.678066 561.244853 L 755.469157 561.483337 L 755.259894 561.721510 L 755.050277 561.959370 L 754.840305 562.196919 L 754.629981 562.434155 L 754.419304 562.671078 L 754.208275 562.907688 L 753.996894 563.143983 L 753.785161 563.379963 L 753.573078 563.615628 L 753.360644 563.850977 L 753.147861 564.086010 L 752.934728 564.320726 L 752.721246 564.555125 L 752.507415 564.789206 L 752.293237 565.022968 L 752.078711 565.256412 L 751.863838 565.489536 L 751.648618 565.722341 L 751.433052 565.954824 L 751.217141 566.186987 L 751.000884 566.418829 L 750.784283 566.650348 L 750.567338 566.881545 L 750.350048 567.112419 L 750.132416 567.342969 L 749.914441 567.573195 L 749.696123 567.803097 L 749.477464 568.032674 L 749.258464 568.261925 L 749.039122 568.490850 L 748.819440 568.719448 L 748.599419 568.947720 L 748.379058 569.175663 L 748.158358 569.403279 L 747.937320 569.630566 L 747.715944 569.857524 L 747.494230 570.084152 L 747.272180 570.310451 L 747.049793 570.536418 L 746.827070 570.762055 L 746.604012 570.987360 L 746.380618 571.212333 L 746.156891 571.436973 L 745.932829 571.661280 L 796.151909 621.900080 L 796.450658 621.601003 L 796.748961 621.301483 L 797.046819 621.001519 L 797.344230 620.701113 L 797.641194 620.400264 L 797.937709 620.098974 L 798.233777 619.797243 L 798.529395 619.495072 L 798.824563 619.192461 L 799.119281 618.889411 L 799.413547 618.585924 L 799.707362 618.281999 L 800.000724 617.977637 L 800.293633 617.672839 L 800.586088 617.367606 L 800.878089 617.061937 L 801.169634 616.755835 L 801.460724 616.449300 L 801.751358 616.142331 L 802.041534 615.834931 L 802.331253 615.527099 L 802.620514 615.218837 L 802.909316 614.910144 L 803.197658 614.601022 L 803.485540 614.291472 L 803.772961 613.981493 L 804.059920 613.671088 L 804.346418 613.360255 L 804.632452 613.048997 L 804.918024 612.737314 L 805.203131 612.425206 L 805.487773 612.112674 L 805.771951 611.799720 L 806.055662 611.486342 L 806.338907 611.172543 L 806.621685 610.858323 L 806.903994 610.543683 L 807.185836 610.228623 L 807.467208 609.913144 L 807.748111 609.597247 L 808.028544 609.280932 L 808.308505 608.964200 L 808.587995 608.647052 L 808.867013 608.329489 L 809.145558 608.011511 L 809.423630 607.693119 L 809.701228 607.374313 L 809.978351 607.055095 L 810.254999 606.735465 L 810.531171 606.415424 L 810.806867 606.094972 L 811.082085 605.774110 L 811.356826 605.452839 L 811.631089 605.131160 L 811.904872 604.809073 L 812.178177 604.486580 L 812.451001 604.163680 Z " style="stroke-width: 1; stroke-linecap: butt; stroke: rgb(100%,64%,0%); fill: rgb(100%,64%,0%);"/>
               <path d="M 790.493575 335.487437 L 790.620498 335.777967 L 790.746989 336.068686 L 790.873047 336.359592 L 790.998673 336.650686 L 791.123865 336.941966 L 791.248623 337.233433 L 791.372948 337.525084 L 791.496839 337.816921 L 791.620295 338.108941 L 791.743317 338.401144 L 791.865904 338.693531 L 791.988056 338.986099 L 792.109773 339.278849 L 792.231054 339.571779 L 792.351899 339.864890 L 792.472307 340.158180 L 792.592279 340.451649 L 792.711815 340.745296 L 792.830913 341.039121 L 792.949575 341.333122 L 793.067798 341.627300 L 793.185584 341.921653 L 793.302932 342.216181 L 793.419841 342.510883 L 793.536312 342.805759 L 793.652344 343.100808 L 793.767937 343.396029 L 793.883091 343.691422 L 793.997805 343.986986 L 794.112079 344.282720 L 794.225913 344.578624 L 794.339307 344.874697 L 794.452260 345.170939 L 794.564773 345.467348 L 794.676844 345.763924 L 794.788474 346.060666 L 794.899662 346.357574 L 795.010408 346.654648 L 795.120712 346.951885 L 795.230574 347.249287 L 795.339994 347.546852 L 795.448970 347.844579 L 795.557504 348.142468 L 795.665594 348.440518 L 795.773241 348.738728 L 795.880443 349.037099 L 795.987202 349.335628 L 796.093517 349.634316 L 796.199387 349.933162 L 796.304812 350.232165 L 796.409793 350.531325 L 796.514328 350.830640 L 796.618418 351.130111 L 796.722062 351.429736 L 796.825260 351.729515 L 796.928012 352.029447 L 797.030318 352.329532 L 864.281894 329.457748 L 864.145486 329.057635 L 864.008483 328.657726 L 863.870885 328.258020 L 863.732693 327.858520 L 863.593907 327.459226 L 863.454527 327.060139 L 863.314553 326.661259 L 863.173986 326.262589 L 863.032825 325.864128 L 862.891073 325.465877 L 862.748728 325.067838 L 862.605791 324.670010 L 862.462262 324.272396 L 862.318141 323.874996 L 862.173430 323.477811 L 862.028128 323.080842 L 861.882236 322.684089 L 861.735753 322.287553 L 861.588681 321.891236 L 861.441019 321.495139 L 861.292768 321.099261 L 861.143928 320.703604 L 860.994500 320.308169 L 860.844484 319.912957 L 860.693879 319.517969 L 860.542688 319.123205 L 860.390909 318.728667 L 860.238543 318.334354 L 860.085591 317.940269 L 859.932053 317.546412 L 859.777929 317.152784 L 859.623220 316.759385 L 859.467925 316.366217 L 859.312046 315.973281 L 859.155582 315.580576 L 858.998534 315.188105 L 858.840903 314.795869 L 858.682688 314.403867 L 858.523890 314.012101 L 858.364509 313.620571 L 858.204546 313.229279 L 858.044001 312.838226 L 857.882875 312.447412 L 857.721167 312.056838 L 857.558878 311.666505 L 857.396009 311.276414 L 857.232560 310.886565 L 857.068530 310.496961 L 856.903922 310.107600 L 856.738734 309.718485 L 856.572968 309.329616 L 856.406623 308.940995 L 856.239700 308.552621 L 856.072199 308.164496 L 855.904122 307.776620 L 855.735467 307.388995 L 855.566236 307.001622 Z " style="stroke-linecap: butt; stroke-width: 1; stroke: rgb(100%,64%,0%); fill: rgb(100%,64%,0%);"/>
               <path d="M 600.796834 207.913072 L 601.113766 207.921522 L 601.430686 207.930443 L 601.747591 207.939836 L 602.064482 207.949701 L 602.381358 207.960037 L 602.698219 207.970844 L 603.015063 207.982123 L 603.331890 207.993873 L 603.648699 208.006094 L 603.965489 208.018787 L 604.282260 208.031951 L 604.599012 208.045586 L 604.915742 208.059693 L 605.232452 208.074271 L 605.549139 208.089319 L 605.865804 208.104839 L 606.182445 208.120831 L 606.499062 208.137293 L 606.815654 208.154226 L 607.132220 208.171630 L 607.448761 208.189505 L 607.765274 208.207852 L 608.081760 208.226669 L 608.398217 208.245956 L 608.714646 208.265715 L 609.031044 208.285944 L 609.347413 208.306644 L 609.663750 208.327815 L 609.980055 208.349456 L 610.296328 208.371568 L 610.612567 208.394150 L 610.928772 208.417203 L 611.244943 208.440727 L 611.561079 208.464720 L 611.877178 208.489184 L 612.193241 208.514118 L 612.509266 208.539522 L 612.825253 208.565397 L 613.141201 208.591742 L 613.457110 208.618556 L 613.772978 208.645841 L 614.088806 208.673595 L 614.404592 208.701819 L 614.720335 208.730513 L 615.036036 208.759677 L 615.351692 208.789311 L 615.667305 208.819414 L 615.982872 208.849986 L 616.298393 208.881028 L 616.613868 208.912540 L 616.929296 208.944520 L 617.244675 208.976970 L 617.560006 209.009889 L 617.875288 209.043277 L 618.190520 209.077135 L 618.505701 209.111461 L 618.820830 209.146256 L 626.669243 138.546714 L 626.249071 138.500321 L 625.828829 138.454552 L 625.408521 138.409409 L 624.988145 138.364892 L 624.567704 138.321000 L 624.147197 138.277733 L 623.726627 138.235092 L 623.305994 138.193077 L 622.885299 138.151688 L 622.464543 138.110924 L 622.043726 138.070787 L 621.622851 138.031276 L 621.201917 137.992391 L 620.780925 137.954132 L 620.359878 137.916499 L 619.938774 137.879494 L 619.517616 137.843114 L 619.096405 137.807361 L 618.675141 137.772235 L 618.253824 137.737736 L 617.832457 137.703864 L 617.411041 137.670618 L 616.989575 137.638000 L 616.568061 137.606008 L 616.146500 137.574644 L 615.724892 137.543907 L 615.303240 137.513797 L 614.881543 137.484314 L 614.459803 137.455459 L 614.038020 137.427232 L 613.616196 137.399632 L 613.194331 137.372659 L 612.772426 137.346314 L 612.350483 137.320597 L 611.928502 137.295508 L 611.506484 137.271047 L 611.084430 137.247213 L 610.662342 137.224007 L 610.240219 137.201430 L 609.818063 137.179480 L 609.395875 137.158159 L 608.973655 137.137465 L 608.551406 137.117400 L 608.129126 137.097963 L 607.706819 137.079154 L 607.284484 137.060974 L 606.862122 137.043422 L 606.439735 137.026498 L 606.017323 137.010203 L 605.594887 136.994536 L 605.172428 136.979498 L 604.749948 136.965088 L 604.327446 136.951307 L 603.904925 136.938154 L 603.482384 136.925630 L 603.059825 136.913735 L 602.637249 136.902468 Z " style="stroke-width: 1; stroke-linecap: butt; stroke: rgb(100%,64%,0%); fill: rgb(100%,64%,0%);"/>
               <path d="M 562.443048 210.385958 L 562.756344 210.337344 L 563.069711 210.289197 L 563.383150 210.241516 L 563.696659 210.194301 L 564.010238 210.147553 L 564.323887 210.101271 L 564.637604 210.055456 L 564.951388 210.010108 L 565.265240 209.965226 L 565.579158 209.920812 L 565.893142 209.876864 L 566.207192 209.833384 L 566.521305 209.790371 L 566.835482 209.747826 L 567.149722 209.705748 L 567.464024 209.664137 L 567.778388 209.622994 L 568.092813 209.582319 L 568.407297 209.542112 L 568.721842 209.502373 L 569.036445 209.463101 L 569.351106 209.424298 L 569.665824 209.385963 L 569.980600 209.348096 L 570.295431 209.310698 L 570.610317 209.273768 L 570.925258 209.237306 L 571.240253 209.201313 L 571.555301 209.165789 L 571.870402 209.130734 L 572.185555 209.096147 L 572.500758 209.062029 L 572.816012 209.028380 L 573.131316 208.995201 L 573.446669 208.962490 L 573.762070 208.930249 L 574.077518 208.898477 L 574.393014 208.867174 L 574.708556 208.836340 L 575.024143 208.805977 L 575.339775 208.776082 L 575.655451 208.746658 L 575.971171 208.717703 L 576.286933 208.689217 L 576.602738 208.661202 L 576.918584 208.633656 L 577.234470 208.606580 L 577.550396 208.579975 L 577.866362 208.553839 L 578.182366 208.528174 L 578.498408 208.502978 L 578.814487 208.478253 L 579.130603 208.453998 L 579.446754 208.430214 L 579.762940 208.406900 L 580.079161 208.384056 L 580.395415 208.361683 L 575.435357 137.500616 L 575.013684 137.530447 L 574.592057 137.560905 L 574.170475 137.591991 L 573.748940 137.623704 L 573.327453 137.656044 L 572.906014 137.689010 L 572.484625 137.722604 L 572.063286 137.756825 L 571.641998 137.791672 L 571.220763 137.827147 L 570.799581 137.863248 L 570.378454 137.899975 L 569.957381 137.937329 L 569.536365 137.975309 L 569.115405 138.013916 L 568.694503 138.053149 L 568.273660 138.093008 L 567.852877 138.133493 L 567.432155 138.174604 L 567.011494 138.216341 L 566.590896 138.258704 L 566.170361 138.301693 L 565.749891 138.345307 L 565.329486 138.389547 L 564.909147 138.434412 L 564.488876 138.479902 L 564.068673 138.526017 L 563.648538 138.572758 L 563.228474 138.620124 L 562.808481 138.668114 L 562.388559 138.716730 L 561.968711 138.765970 L 561.548936 138.815834 L 561.129236 138.866323 L 560.709611 138.917437 L 560.290063 138.969175 L 559.870592 139.021536 L 559.451200 139.074522 L 559.031887 139.128132 L 558.612654 139.182365 L 558.193502 139.237222 L 557.774432 139.292703 L 557.355446 139.348807 L 556.936543 139.405534 L 556.517725 139.462885 L 556.098993 139.520859 L 555.680348 139.579455 L 555.261790 139.638674 L 554.843321 139.698516 L 554.424941 139.758980 L 554.006652 139.820067 L 553.588454 139.881776 L 553.170349 139.944107 L 552.752336 140.007060 L 552.334418 140.070635 L 551.916595 140.134832 L 551.498867 140.199650 Z " style="stroke-linecap: butt; stroke-width: 1; stroke: rgb(100%,64%,0%); fill: rgb(100%,64%,0%);"/>
               <path d="M 393.093831 353.598223 L 393.194250 353.297501 L 393.295116 352.996929 L 393.396429 352.696508 L 393.498189 352.396238 L 393.600396 352.096119 L 393.703049 351.796153 L 393.806148 351.496340 L 393.909693 351.196681 L 394.013684 350.897176 L 394.118120 350.597826 L 394.223001 350.298631 L 394.328328 349.999594 L 394.434099 349.700713 L 394.540315 349.401990 L 394.646975 349.103425 L 394.754079 348.805019 L 394.861627 348.506773 L 394.969619 348.208687 L 395.078054 347.910762 L 395.186932 347.612999 L 395.296253 347.315398 L 395.406017 347.017961 L 395.516223 346.720686 L 395.626871 346.423576 L 395.737961 346.126631 L 395.849493 345.829852 L 395.961466 345.533239 L 396.073880 345.236793 L 396.186735 344.940514 L 396.300031 344.644404 L 396.413767 344.348462 L 396.527944 344.052690 L 396.642560 343.757088 L 396.757616 343.461657 L 396.873111 343.166398 L 396.989046 342.871311 L 397.105419 342.576396 L 397.222231 342.281655 L 397.339482 341.987088 L 397.457170 341.692696 L 397.575297 341.398480 L 397.693861 341.104439 L 397.812862 340.810575 L 397.932300 340.516888 L 398.052176 340.223380 L 398.172487 339.930050 L 398.293235 339.636899 L 398.414419 339.343929 L 398.536039 339.051139 L 398.658094 338.758530 L 398.780585 338.466103 L 398.903510 338.173859 L 399.026870 337.881798 L 399.150664 337.589921 L 399.274893 337.298228 L 399.399555 337.006721 L 399.524651 336.715399 L 334.274337 308.638905 L 334.107543 309.027334 L 333.941327 309.416010 L 333.775689 309.804934 L 333.610630 310.194104 L 333.446150 310.583518 L 333.282249 310.973177 L 333.118929 311.363080 L 332.956189 311.753225 L 332.794029 312.143611 L 332.632450 312.534239 L 332.471453 312.925106 L 332.311037 313.316213 L 332.151204 313.707557 L 331.991953 314.099139 L 331.833284 314.490958 L 331.675199 314.883012 L 331.517697 315.275301 L 331.360779 315.667824 L 331.204445 316.060580 L 331.048696 316.453568 L 330.893531 316.846787 L 330.738952 317.240237 L 330.584958 317.633916 L 330.431550 318.027824 L 330.278728 318.421960 L 330.126493 318.816322 L 329.974844 319.210911 L 329.823783 319.605725 L 329.673310 320.000763 L 329.523424 320.396025 L 329.374127 320.791509 L 329.225418 321.187215 L 329.077298 321.583141 L 328.929767 321.979288 L 328.782825 322.375653 L 328.636474 322.772237 L 328.490713 323.169038 L 328.345542 323.566056 L 328.200962 323.963289 L 328.056973 324.360737 L 327.913576 324.758398 L 327.770770 325.156272 L 327.628557 325.554359 L 327.486935 325.952656 L 327.345907 326.351164 L 327.205472 326.749881 L 327.065630 327.148807 L 326.926382 327.547940 L 326.787727 327.947280 L 326.649667 328.346826 L 326.512202 328.746577 L 326.375331 329.146532 L 326.239056 329.546690 L 326.103376 329.947050 L 325.968291 330.347612 L 325.833803 330.748374 L 325.699912 331.149336 Z " style="stroke-width: 1; stroke-linecap: butt; stroke: rgb(100%,64%,0%); fill: rgb(100%,64%,0%);"/>
               <path d="M 386.248623 379.462800 L 386.310569 379.151866 L 386.372978 378.841024 L 386.435849 378.530276 L 386.499183 378.219621 L 386.562979 377.909061 L 386.627236 377.598597 L 386.691955 377.288228 L 386.757136 376.977956 L 386.822779 376.667781 L 386.888883 376.357704 L 386.955448 376.047726 L 387.022475 375.737848 L 387.089962 375.428069 L 387.157910 375.118391 L 387.226319 374.808815 L 387.295188 374.499340 L 387.364517 374.189969 L 387.434307 373.880701 L 387.504557 373.571537 L 387.575266 373.262478 L 387.646436 372.953525 L 387.718065 372.644677 L 387.790153 372.335937 L 387.862701 372.027304 L 387.935707 371.718780 L 388.009173 371.410364 L 388.083097 371.102058 L 388.157480 370.793863 L 388.232322 370.485778 L 388.307621 370.177806 L 388.383379 369.869945 L 388.459595 369.562198 L 388.536268 369.254564 L 388.613400 368.947045 L 388.690988 368.639640 L 388.769034 368.332352 L 388.847537 368.025180 L 388.926496 367.718125 L 389.005913 367.411188 L 389.085786 367.104370 L 389.166115 366.797670 L 389.246901 366.491091 L 389.328143 366.184632 L 389.409840 365.878294 L 389.491993 365.572078 L 389.574602 365.265985 L 389.657666 364.960015 L 389.741185 364.654168 L 389.825159 364.348447 L 389.909588 364.042851 L 389.994471 363.737380 L 390.079809 363.432036 L 390.165601 363.126820 L 390.251846 362.821731 L 390.338546 362.516772 L 390.425699 362.211941 L 390.513306 361.907241 L 322.259211 342.228027 L 322.142402 342.634294 L 322.026198 343.040735 L 321.910598 343.447348 L 321.795604 343.854133 L 321.681215 344.261088 L 321.567431 344.668213 L 321.454254 345.075507 L 321.341682 345.482969 L 321.229717 345.890597 L 321.118358 346.298392 L 321.007606 346.706352 L 320.897461 347.114477 L 320.787923 347.522765 L 320.678993 347.931215 L 320.570671 348.339827 L 320.462957 348.748600 L 320.355851 349.157532 L 320.249354 349.566624 L 320.143465 349.975873 L 320.038185 350.385279 L 319.933515 350.794842 L 319.829454 351.204560 L 319.726003 351.614432 L 319.623161 352.024458 L 319.520930 352.434636 L 319.419309 352.844966 L 319.318298 353.255447 L 319.217899 353.666077 L 319.118110 354.076857 L 319.018933 354.487784 L 318.920367 354.898858 L 318.822413 355.310079 L 318.725071 355.721445 L 318.628341 356.132955 L 318.532223 356.544609 L 318.436718 356.956406 L 318.341825 357.368343 L 318.247546 357.780422 L 318.153879 358.192641 L 318.060826 358.604998 L 317.968387 359.017493 L 317.876561 359.430126 L 317.785350 359.842894 L 317.694752 360.255798 L 317.604769 360.668836 L 317.515401 361.082008 L 317.426647 361.495312 L 317.338509 361.908748 L 317.250985 362.322314 L 317.164077 362.736010 L 317.077785 363.149835 L 316.992108 363.563788 L 316.907047 363.977868 L 316.822602 364.392074 L 316.738774 364.806405 L 316.655562 365.220860 L 316.572967 365.635439 Z " style="stroke-linecap: butt; stroke-width: 1; stroke: rgb(100%,64%,0%); fill: rgb(100%,64%,0%);"/>
               <path d="M 471.129226 594.152031 L 470.871675 593.967141 L 470.614399 593.781867 L 470.357398 593.596211 L 470.100674 593.410173 L 469.844228 593.223753 L 469.588058 593.036952 L 469.332168 592.849770 L 469.076555 592.662207 L 468.821223 592.474264 L 468.566170 592.285942 L 468.311397 592.097240 L 468.056906 591.908160 L 467.802696 591.718701 L 467.548768 591.528864 L 467.295123 591.338650 L 467.041761 591.148058 L 466.788683 590.957090 L 466.535890 590.765745 L 466.283381 590.574025 L 466.031158 590.381929 L 465.779221 590.189458 L 465.527571 589.996613 L 465.276208 589.803393 L 465.025132 589.609799 L 464.774345 589.415832 L 464.523847 589.221493 L 464.273638 589.026781 L 464.023719 588.831696 L 463.774091 588.636241 L 463.524753 588.440414 L 463.275707 588.244216 L 463.026954 588.047648 L 462.778493 587.850710 L 462.530325 587.653403 L 462.282452 587.455726 L 462.034872 587.257681 L 461.787588 587.059268 L 461.540599 586.860488 L 461.293906 586.661340 L 461.047509 586.461825 L 460.801410 586.261944 L 460.555608 586.061697 L 460.310105 585.861085 L 460.064900 585.660107 L 459.819995 585.458765 L 459.575389 585.257059 L 459.331084 585.054989 L 459.087079 584.852556 L 458.843376 584.649760 L 458.599975 584.446602 L 458.356877 584.243082 L 458.114081 584.039200 L 457.871589 583.834958 L 457.629402 583.630354 L 457.387519 583.425391 L 457.145941 583.220068 L 456.904669 583.014386 L 410.781028 637.037555 L 411.102724 637.311797 L 411.424828 637.585561 L 411.747339 637.858845 L 412.070256 638.131650 L 412.393578 638.403973 L 412.717305 638.675815 L 413.041437 638.947175 L 413.365971 639.218053 L 413.690909 639.488447 L 414.016248 639.758358 L 414.341988 640.027785 L 414.668129 640.296726 L 414.994670 640.565182 L 415.321610 640.833152 L 415.648948 641.100636 L 415.976683 641.367632 L 416.304816 641.634140 L 416.633344 641.900159 L 416.962268 642.165690 L 417.291587 642.430731 L 417.621300 642.695281 L 417.951405 642.959341 L 418.281904 643.222909 L 418.612794 643.485986 L 418.944075 643.748570 L 419.275746 644.010660 L 419.607807 644.272257 L 419.940257 644.533360 L 420.273095 644.793968 L 420.606320 645.054080 L 420.939932 645.313696 L 421.273930 645.572816 L 421.608313 645.831438 L 421.943080 646.089563 L 422.278231 646.347189 L 422.613765 646.604317 L 422.949681 646.860945 L 423.285978 647.117073 L 423.622656 647.372700 L 423.959714 647.627826 L 424.297151 647.882451 L 424.634967 648.136573 L 424.973160 648.390192 L 425.311731 648.643308 L 425.650677 648.895919 L 425.989999 649.148027 L 426.329696 649.399629 L 426.669767 649.650725 L 427.010210 649.901316 L 427.351027 650.151399 L 427.692214 650.400975 L 428.033773 650.650044 L 428.375702 650.898603 L 428.718001 651.146654 L 429.060668 651.394196 L 429.403703 651.641227 L 429.747105 651.887748 Z " style="stroke-width: 1; stroke-linecap: butt; stroke: rgb(100%,64%,0%); fill: rgb(100%,64%,0%);"/>
               <path d="M 735.923247 581.042580 L 735.676072 581.259388 L 735.428564 581.475815 L 735.180721 581.691859 L 734.932546 581.907521 L 734.684038 582.122799 L 734.435199 582.337694 L 734.186028 582.552205 L 733.936526 582.766330 L 733.686695 582.980071 L 733.436533 583.193426 L 733.186043 583.406395 L 732.935225 583.618977 L 732.684079 583.831172 L 732.432606 584.042979 L 732.180807 584.254398 L 731.928681 584.465428 L 731.676231 584.676069 L 731.423455 584.886320 L 731.170356 585.096181 L 730.916933 585.305651 L 730.663187 585.514730 L 730.409119 585.723417 L 730.154729 585.931712 L 729.900019 586.139614 L 729.644987 586.347123 L 729.389636 586.554239 L 729.133966 586.760960 L 728.877977 586.967286 L 728.621670 587.173217 L 728.365045 587.378753 L 728.108104 587.583892 L 727.850847 587.788634 L 727.593273 587.992980 L 727.335385 588.196928 L 727.077183 588.400477 L 726.818667 588.603628 L 726.559838 588.806380 L 726.300696 589.008733 L 726.041242 589.210685 L 725.781478 589.412237 L 725.521402 589.613388 L 725.261016 589.814137 L 725.000321 590.014484 L 724.739318 590.214429 L 724.478006 590.413971 L 724.216386 590.613110 L 723.954460 590.811844 L 723.692227 591.010175 L 723.429688 591.208100 L 723.166845 591.405620 L 722.903697 591.602735 L 722.640245 591.799443 L 722.376490 591.995744 L 722.112433 592.191639 L 721.848073 592.387125 L 721.583413 592.582204 L 721.318451 592.776874 L 763.332738 650.054205 L 763.686020 649.794645 L 764.038901 649.534540 L 764.391380 649.273891 L 764.743457 649.012698 L 765.095130 648.750963 L 765.446399 648.488686 L 765.797263 648.225866 L 766.147721 647.962506 L 766.497772 647.698606 L 766.847416 647.434165 L 767.196651 647.169186 L 767.545477 646.903668 L 767.893893 646.637612 L 768.241898 646.371018 L 768.589492 646.103889 L 768.936672 645.836223 L 769.283440 645.568022 L 769.629793 645.299286 L 769.975731 645.030016 L 770.321254 644.760213 L 770.666359 644.489877 L 771.011047 644.219009 L 771.355317 643.947610 L 771.699168 643.675679 L 772.042599 643.403219 L 772.385608 643.130229 L 772.728197 642.856710 L 773.070363 642.582662 L 773.412105 642.308087 L 773.753424 642.032986 L 774.094318 641.757358 L 774.434786 641.481204 L 774.774828 641.204525 L 775.114442 640.927322 L 775.453629 640.649596 L 775.792386 640.371346 L 776.130714 640.092574 L 776.468611 639.813281 L 776.806077 639.533466 L 777.143111 639.253131 L 777.479712 638.972277 L 777.815879 638.690903 L 778.151612 638.409011 L 778.486909 638.126602 L 778.821770 637.843675 L 779.156194 637.560233 L 779.490181 637.276274 L 779.823729 636.991801 L 780.156838 636.706813 L 780.489507 636.421312 L 780.821735 636.135298 L 781.153521 635.848772 L 781.484864 635.561734 L 781.815765 635.274185 L 782.146221 634.986126 L 782.476233 634.697557 L 782.805799 634.408480 Z " style="stroke-linecap: butt; stroke-width: 1; stroke: rgb(43%,50%,56%); fill: rgb(43%,50%,56%);"/>
               <path d="M 795.415719 494.136174 L 795.302557 494.444874 L 795.188920 494.753398 L 795.074806 495.061747 L 794.960217 495.369920 L 794.845152 495.677915 L 794.729613 495.985732 L 794.613599 496.293371 L 794.497110 496.600831 L 794.380147 496.908110 L 794.262710 497.215208 L 794.144799 497.522125 L 794.026415 497.828860 L 793.907558 498.135412 L 793.788228 498.441780 L 793.668425 498.747963 L 793.548150 499.053961 L 793.427404 499.359773 L 793.306185 499.665399 L 793.184495 499.970837 L 793.062335 500.276087 L 792.939703 500.581149 L 792.816601 500.886020 L 792.693028 501.190702 L 792.568986 501.495192 L 792.444474 501.799491 L 792.319492 502.103597 L 792.194042 502.407510 L 792.068123 502.711229 L 791.941735 503.014754 L 791.814879 503.318083 L 791.687556 503.621216 L 791.559765 503.924152 L 791.431506 504.226891 L 791.302781 504.529431 L 791.173589 504.831773 L 791.043931 505.133915 L 790.913807 505.435856 L 790.783217 505.737596 L 790.652161 506.039135 L 790.520641 506.340471 L 790.388656 506.641603 L 790.256206 506.942532 L 790.123292 507.243256 L 789.989915 507.543774 L 789.856074 507.844087 L 789.721770 508.144192 L 789.587003 508.444090 L 789.451773 508.743780 L 789.316081 509.043260 L 789.179927 509.342531 L 789.043312 509.641592 L 788.906236 509.940441 L 788.768698 510.239079 L 788.630700 510.537504 L 788.492242 510.835715 L 788.353324 511.133713 L 788.213946 511.431496 L 852.526731 541.593701 L 852.712568 541.196657 L 852.897792 540.799327 L 853.082403 540.401711 L 853.266401 540.003811 L 853.449784 539.605628 L 853.632553 539.207162 L 853.814706 538.808414 L 853.996245 538.409386 L 854.177167 538.010079 L 854.357473 537.610493 L 854.537163 537.210629 L 854.716235 536.810488 L 854.894690 536.410072 L 855.072526 536.009380 L 855.249745 535.608415 L 855.426344 535.207177 L 855.602324 534.805667 L 855.777685 534.403886 L 855.952425 534.001834 L 856.126545 533.599514 L 856.300044 533.196925 L 856.472922 532.794070 L 856.645178 532.390948 L 856.816811 531.987560 L 856.987823 531.583909 L 857.158211 531.179994 L 857.327976 530.775816 L 857.497117 530.371378 L 857.665633 529.966678 L 857.833526 529.561720 L 858.000793 529.156502 L 858.167435 528.751027 L 858.333451 528.345296 L 858.498841 527.939309 L 858.663604 527.533067 L 858.827740 527.126571 L 858.991249 526.719823 L 859.154130 526.312822 L 859.316384 525.905571 L 859.478008 525.498071 L 859.639004 525.090321 L 859.799370 524.682323 L 859.959107 524.274079 L 860.118213 523.865588 L 860.276690 523.456853 L 860.434535 523.047873 L 860.591749 522.638651 L 860.748332 522.229186 L 860.904283 521.819480 L 861.059601 521.409534 L 861.214287 520.999349 L 861.368340 520.588926 L 861.521759 520.178266 L 861.674545 519.767369 L 861.826696 519.356237 L 861.978213 518.944871 L 862.129095 518.533272 Z " style="stroke-width: 1; stroke-linecap: butt; stroke: rgb(43%,50%,56%); fill: rgb(43%,50%,56%);"/>
               <path d="M 561.121055 210.596352 L 561.445632 210.543907 L 561.770290 210.491963 L 562.095027 210.440520 L 562.419844 210.389578 L 562.744739 210.339137 L 563.069711 210.289197 L 563.394760 210.239759 L 563.719885 210.190822 L 564.045085 210.142387 L 564.370359 210.094454 L 564.695707 210.047023 L 565.021127 210.000094 L 565.346620 209.953666 L 565.672184 209.907742 L 565.997818 209.862319 L 566.323522 209.817399 L 566.649295 209.772982 L 566.975136 209.729067 L 567.301045 209.685655 L 567.627020 209.642746 L 567.953061 209.600339 L 568.279167 209.558436 L 568.605337 209.517036 L 568.931571 209.476140 L 569.257867 209.435747 L 569.584225 209.395857 L 569.910645 209.356471 L 570.237124 209.317588 L 570.563664 209.279209 L 570.890262 209.241334 L 571.216918 209.203963 L 571.543632 209.167096 L 571.870402 209.130734 L 572.197228 209.094875 L 572.524109 209.059521 L 572.851043 209.024671 L 573.178032 208.990325 L 573.505073 208.956484 L 573.832165 208.923148 L 574.159309 208.890316 L 574.486503 208.857989 L 574.813746 208.826167 L 575.141039 208.794850 L 575.468379 208.764038 L 575.795766 208.733731 L 576.123199 208.703929 L 576.450679 208.674632 L 576.778203 208.645841 L 577.105771 208.617555 L 577.433382 208.589774 L 577.761036 208.562499 L 578.088731 208.535729 L 578.416468 208.509465 L 578.744244 208.483707 L 579.072060 208.458454 L 579.399914 208.433708 L 579.727807 208.409467 L 574.545212 137.564328 L 574.108022 137.596650 L 573.670883 137.629645 L 573.233795 137.663315 L 572.796760 137.697660 L 572.359778 137.732678 L 571.922851 137.768371 L 571.485979 137.804738 L 571.049164 137.841779 L 570.612407 137.879494 L 570.175708 137.917882 L 569.739069 137.956944 L 569.302491 137.996680 L 568.865975 138.037090 L 568.429521 138.078173 L 567.993132 138.119929 L 567.556807 138.162358 L 567.120548 138.205461 L 566.684357 138.249236 L 566.248233 138.293685 L 565.812179 138.338806 L 565.376194 138.384600 L 564.940281 138.431067 L 564.504440 138.478206 L 564.068673 138.526017 L 563.632979 138.574501 L 563.197361 138.623657 L 562.761819 138.673485 L 562.326355 138.723985 L 561.890969 138.775157 L 561.455663 138.827000 L 561.020437 138.879515 L 560.585292 138.932701 L 560.150230 138.986559 L 559.715252 139.041088 L 559.280359 139.096288 L 558.845551 139.152159 L 558.410830 139.208700 L 557.976196 139.265912 L 557.541652 139.323795 L 557.107197 139.382348 L 556.672833 139.441571 L 556.238561 139.501465 L 555.804382 139.562028 L 555.370297 139.623261 L 554.936306 139.685164 L 554.502412 139.747736 L 554.068615 139.810978 L 553.634916 139.874889 L 553.201316 139.939469 L 552.767817 140.004718 L 552.334418 140.070635 L 551.901122 140.137221 L 551.467929 140.204476 L 551.034840 140.272399 L 550.601856 140.340990 L 550.168979 140.410249 L 549.736209 140.480176 Z " style="stroke-linecap: butt; stroke-width: 1; stroke: rgb(43%,50%,56%); fill: rgb(43%,50%,56%);"/>
               <circle cx="595.275590551" cy="420.94488189" r="94.7125984252" style="stroke-width: 1; stroke-linecap: butt; stroke: rgb(0%,0%,0%); fill: none;"/>
               <circle cx="595.275590551" cy="420.94488189" r="284.137795276" style="stroke-linecap: butt; stroke-width: 1; stroke: rgb(0%,0%,0%); fill: none;"/>
               <g transform=" matrix(0.284950, 0.958542, -0.958542, 0.284950, 642.505215, 579.820450)">
                    <text style="font-size: 25px; font-family: Helvetica; fill: rgb(0%,0%,0%);" transform="translate(0,0) scale(1,-1)" x="-143.15" y="0">
                         BBa_J23119
                    </text>
               </g>
               <g transform=" matrix(0.517015, 0.855977, -0.855977, 0.517015, 680.969254, 562.820460)">
                    <text style="font-size: 25px; font-family: Helvetica; fill: rgb(0%,0%,0%);" transform="translate(0,0) scale(1,-1)" x="-133.425" y="0">
                         BBa_B0034
                    </text>
               </g>
               <g transform=" matrix(0.974451, 0.224598, -0.224598, 0.974451, 756.788041, 458.171379)">
                    <text style="font-size: 25px; font-family: Helvetica; fill: rgb(0%,0%,0%);" transform="translate(0,0) scale(1,-1)" x="-116.75" y="0">
                         eco:b0350
                    </text>
               </g>
               <g transform=" matrix(0.997532, -0.070218, 0.070218, 0.997532, 760.613522, 409.306499)">
                    <text style="font-size: 25px; font-family: Helvetica; fill: rgb(0%,0%,0%);" transform="translate(0,0) scale(1,-1)" x="-133.425" y="0">
                         BBa_B1006
                    </text>
               </g>
               <g transform=" matrix(0.890167, 0.455634, -0.455634, 0.890167, 784.973220, 518.041976)">
                    <text style="font-size: 25px; font-family: Helvetica; fill: rgb(0%,0%,0%);" transform="translate(0,0) scale(1,-1)" x="0" y="0">
                         EcoRII
                    </text>
               </g>
               <g transform=" matrix(0.955930, -0.293594, 0.293594, 0.955930, 798.987533, 358.379071)">
                    <text style="font-size: 25px; font-family: Helvetica; fill: rgb(0%,0%,0%);" transform="translate(0,0) scale(1,-1)" x="0" y="0">
                         EcoRII
                    </text>
               </g>
               <g transform=" matrix(0.883271, -0.468863, 0.468863, 0.883271, 783.503588, 321.028630)">
                    <text style="font-size: 25px; font-family: Helvetica; fill: rgb(0%,0%,0%);" transform="translate(0,0) scale(1,-1)" x="0" y="0">
                         EcoRII
                    </text>
               </g>
               <g transform=" matrix(0.873516, -0.486796, 0.486796, 0.873516, 781.424690, 317.206996)">
                    <text style="font-size: 25px; font-family: Helvetica; fill: rgb(0%,0%,0%);" transform="translate(0,0) scale(1,-1)" x="0" y="0">
                         EcoRII
                    </text>
               </g>
               <g transform=" matrix(0.403530, 0.914966, -0.914966, 0.403530, 509.281970, 225.962489)">
                    <text style="font-size: 25px; font-family: Helvetica; fill: rgb(0%,0%,0%);" transform="translate(0,0) scale(1,-1)" x="-75.025" y="0">
                         EcoRII
                    </text>
               </g>
               <g transform=" matrix(0.482332, 0.875989, -0.875989, 0.482332, 492.489122, 234.268750)">
                    <text style="font-size: 25px; font-family: Helvetica; fill: rgb(0%,0%,0%);" transform="translate(0,0) scale(1,-1)" x="-75.025" y="0">
                         EcoRII
                    </text>
               </g>
               <g transform=" matrix(0.998101, 0.061599, -0.061599, 0.998101, 807.974245, 434.071904)">
                    <text style="font-size: 25px; font-family: Helvetica; fill: rgb(0%,0%,0%);" transform="translate(0,0) scale(1,-1)" x="0" y="0">
                         NotI
                    </text>
               </g>
               <g transform=" matrix(0.105023, -0.994470, 0.994470, 0.105023, 572.894833, 632.869722)">
                    <text style="font-size: 25px; font-family: Helvetica; fill: rgb(0%,0%,0%);" transform="translate(0,0) scale(1,-1)" x="-45.85" y="0">
                         NotI
                    </text>
               </g>
               <g transform=" matrix(0.090958, -0.995855, 0.995855, 0.090958, 575.892237, 633.164867)">
                    <text style="font-size: 25px; font-family: Helvetica; fill: rgb(0%,0%,0%);" transform="translate(0,0) scale(1,-1)" x="-51.425" y="0">
                         XbaI
                    </text>
               </g>
               <g transform=" matrix(0.998468, 0.055328, -0.055328, 0.998468, 808.052507, 432.735563)">
                    <text style="font-size: 25px; font-family: Helvetica; fill: rgb(0%,0%,0%);" transform="translate(0,0) scale(1,-1)" x="0" y="0">
                         PstI
                    </text>
               </g>
               <g transform=" matrix(0.997131, 0.075699, -0.075699, 0.997131, 807.767475, 437.076697)">
                    <text style="font-size: 25px; font-family: Helvetica; fill: rgb(0%,0%,0%);" transform="translate(0,0) scale(1,-1)" x="0" y="0">
                         SpeI
                    </text>
               </g>
               <g transform=" matrix(0.114389, -0.993436, 0.993436, 0.114389, 570.899011, 632.649437)">
                    <text style="font-size: 25px; font-family: Helvetica; fill: rgb(0%,0%,0%);" transform="translate(0,0) scale(1,-1)" x="-68.075" y="0">
                         EcoRI
                    </text>
               </g>
               <g transform=" matrix(0.299967, 0.953950, -0.953950, 0.299967, 659.199615, 624.234713)">
                    <text style="font-size: 25px; font-family: Helvetica; fill: rgb(0%,0%,0%);" transform="translate(0,0) scale(1,-1)" x="0" y="0">
                         TaqI
                    </text>
               </g>
               <g transform=" matrix(0.669383, 0.742917, -0.742917, 0.669383, 737.923439, 579.263004)">
                    <text style="font-size: 25px; font-family: Helvetica; fill: rgb(0%,0%,0%);" transform="translate(0,0) scale(1,-1)" x="0" y="0">
                         TaqI
                    </text>
               </g>
               <g transform=" matrix(0.751009, 0.660292, -0.660292, 0.751009, 755.318058, 561.655382)">
                    <text style="font-size: 25px; font-family: Helvetica; fill: rgb(0%,0%,0%);" transform="translate(0,0) scale(1,-1)" x="0" y="0">
                         TaqI
                    </text>
               </g>
               <g transform=" matrix(0.764331, 0.644824, -0.644824, 0.764331, 758.157148, 558.358980)">
                    <text style="font-size: 25px; font-family: Helvetica; fill: rgb(0%,0%,0%);" transform="translate(0,0) scale(1,-1)" x="0" y="0">
                         TaqI
                    </text>
               </g>
               <g transform=" matrix(0.916072, -0.401014, 0.401014, 0.916072, 790.493575, 335.487437)">
                    <text style="font-size: 25px; font-family: Helvetica; fill: rgb(0%,0%,0%);" transform="translate(0,0) scale(1,-1)" x="0" y="0">
                         TaqI
                    </text>
               </g>
               <g transform=" matrix(0.025909, -0.999664, 0.999664, 0.025909, 600.796834, 207.913072)">
                    <text style="font-size: 25px; font-family: Helvetica; fill: rgb(0%,0%,0%);" transform="translate(0,0) scale(1,-1)" x="0" y="0">
                         TaqI
                    </text>
               </g>
               <g transform=" matrix(0.069826, 0.997559, -0.997559, 0.069826, 580.395415, 208.361683)">
                    <text style="font-size: 25px; font-family: Helvetica; fill: rgb(0%,0%,0%);" transform="translate(0,0) scale(1,-1)" x="-50.025" y="0">
                         TaqI
                    </text>
               </g>
               <g transform=" matrix(0.918573, 0.395252, -0.395252, 0.918573, 399.524651, 336.715399)">
                    <text style="font-size: 25px; font-family: Helvetica; fill: rgb(0%,0%,0%);" transform="translate(0,0) scale(1,-1)" x="-50.025" y="0">
                         TaqI
                    </text>
               </g>
               <g transform=" matrix(0.960859, 0.277038, -0.277038, 0.960859, 390.513306, 361.907241)">
                    <text style="font-size: 25px; font-family: Helvetica; fill: rgb(0%,0%,0%);" transform="translate(0,0) scale(1,-1)" x="-50.025" y="0">
                         TaqI
                    </text>
               </g>
               <g transform=" matrix(0.649314, -0.760521, 0.760521, 0.649314, 456.904669, 583.014386)">
                    <text style="font-size: 25px; font-family: Helvetica; fill: rgb(0%,0%,0%);" transform="translate(0,0) scale(1,-1)" x="-50.025" y="0">
                         TaqI
                    </text>
               </g>
               <g transform=" matrix(0.659997, 0.751268, -0.751268, 0.659997, 735.923247, 581.042580)">
                    <text style="font-size: 25px; font-family: Helvetica; fill: rgb(0%,0%,0%);" transform="translate(0,0) scale(1,-1)" x="0" y="0">
                         EcoRV
                    </text>
               </g>
               <g transform=" matrix(0.939169, 0.343454, -0.343454, 0.939169, 795.415719, 494.136174)">
                    <text style="font-size: 25px; font-family: Helvetica; fill: rgb(0%,0%,0%);" transform="translate(0,0) scale(1,-1)" x="0" y="0">
                         EcoRV
                    </text>
               </g>
               <g transform=" matrix(0.072959, 0.997335, -0.997335, 0.072959, 579.727807, 208.409467)">
                    <text style="font-size: 25px; font-family: Helvetica; fill: rgb(0%,0%,0%);" transform="translate(0,0) scale(1,-1)" x="-77.8" y="0">
                         EcoRV
                    </text>
               </g>
          </g>
     </g>
</svg>
